<svg width="20" height="19" viewBox="0 0 20 19" fill="none" xmlns="http://www.w3.org/2000/svg">
<path d="M2.57442 2H15.1674C16.2087 2.00041 17.1473 2.58921 17.5457 3.49199C17.9442 4.39476 17.724 5.43386 16.9879 6.125L12.7518 10.1C12.2746 10.5601 12.0043 11.1747 11.9969 11.8167V15.475C11.9955 16.2354 11.6142 16.9511 10.9668 17.4083L9.86554 18.1917C9.08386 18.7418 8.03773 18.8295 7.16454 18.418C6.29134 18.0066 5.74148 17.1669 5.74486 16.25V11.8167C5.73746 11.1747 5.46717 10.5601 4.98999 10.1L0.753859 6.125C0.0177488 5.43386 -0.202382 4.39476 0.196057 3.49199C0.594496 2.58921 1.53309 2.00041 2.57442 2Z" fill="#637381"/>
<path d="M12 4C12 1.79086 13.7909 0 16 0C18.2091 0 20 1.79086 20 4C20 6.20914 18.2091 8 16 8C13.7909 8 12 6.20914 12 4Z" fill="#FF5630"/>
</svg>
