<svg width="16" height="14" viewBox="0 0 16 14" fill="none" xmlns="http://www.w3.org/2000/svg">
<path fill-rule="evenodd" clip-rule="evenodd" d="M13.8333 1.80829H7.31667V1.85829C7.29849 0.835798 6.46432 0.0164633 5.44167 0.0166249H3.875C2.86319 0.0116141 2.03161 0.813634 2 1.82496C1.10374 1.90045 0.405608 2.63438 0.375 3.53329V10.4666C0.405608 11.3655 1.10374 12.0995 2 12.175C2.03161 13.1863 2.86319 13.9883 3.875 13.9833H5.44167C6.46432 13.9835 7.29849 13.1641 7.31667 12.1416V12.1916H13.8333C14.8152 12.215 15.6311 11.44 15.6583 10.4583V3.53329C15.6453 3.06247 15.4456 2.61615 15.1033 2.29261C14.761 1.96907 14.3041 1.79484 13.8333 1.80829ZM6.06667 12.1083C6.06667 12.4535 5.78684 12.7333 5.44167 12.7333H3.875C3.70856 12.7356 3.54827 12.6704 3.43056 12.5527C3.31286 12.435 3.24773 12.2747 3.25 12.1083V1.89163C3.24773 1.72518 3.31286 1.56489 3.43056 1.44719C3.54827 1.32948 3.70856 1.26436 3.875 1.26662H5.44167C5.78684 1.26662 6.06667 1.54645 6.06667 1.89163V12.1083ZM8.28773 9.81873C8.38015 10.0375 8.59591 10.1783 8.83333 10.175C8.98583 10.175 9.13209 10.1144 9.23992 10.0065C9.34775 9.89871 9.40833 9.75246 9.40833 9.59996C9.4117 9.36254 9.27083 9.14677 9.05211 9.05435C8.83339 8.96193 8.58048 9.01131 8.41258 9.17921C8.24468 9.3471 8.19531 9.60001 8.28773 9.81873ZM8.83333 7.57496C8.51577 7.57496 8.25833 7.31752 8.25833 6.99996C8.25833 6.6824 8.51577 6.42496 8.83333 6.42496C9.1509 6.42496 9.40833 6.6824 9.40833 6.99996C9.40833 7.31752 9.1509 7.57496 8.83333 7.57496ZM10.5127 9.81873C10.6051 10.0375 10.8209 10.1783 11.0583 10.175C11.3759 10.175 11.6333 9.91752 11.6333 9.59996C11.6367 9.36254 11.4958 9.14677 11.2771 9.05435C11.0584 8.96193 10.8055 9.01131 10.6376 9.17921C10.4697 9.3471 10.4203 9.60001 10.5127 9.81873ZM11.0583 7.57496C10.7408 7.57496 10.4833 7.31752 10.4833 6.99996C10.4833 6.6824 10.7408 6.42496 11.0583 6.42496C11.3759 6.42496 11.6333 6.6824 11.6333 6.99996C11.6333 7.31752 11.3759 7.57496 11.0583 7.57496ZM12.7294 9.81873C12.8218 10.0375 13.0376 10.1783 13.275 10.175C13.5926 10.175 13.85 9.91752 13.85 9.59996C13.8534 9.36254 13.7125 9.14677 13.4938 9.05435C13.2751 8.96193 13.0221 9.01131 12.8542 9.17921C12.6863 9.3471 12.637 9.60001 12.7294 9.81873ZM13.275 7.57496C13.041 7.58174 12.8263 7.44603 12.732 7.2318C12.6378 7.01756 12.6828 6.76756 12.8458 6.59964C13.0089 6.43171 13.2574 6.37939 13.4744 6.46732C13.6913 6.55525 13.8332 6.7659 13.8333 6.99996C13.8335 7.31113 13.586 7.56594 13.275 7.57496ZM8.40833 5.02496H13.7C14.0452 5.02496 14.325 4.74514 14.325 4.39996C14.325 4.05478 14.0452 3.77496 13.7 3.77496H8.40833C8.06316 3.77496 7.78333 4.05478 7.78333 4.39996C7.78333 4.74514 8.06316 5.02496 8.40833 5.02496Z" fill="#637381"/>
</svg>
