<svg width="24" height="20" viewBox="0 0 24 20" fill="none" xmlns="http://www.w3.org/2000/svg">
<path d="M16.185 16.8993L13.764 14.4767C12.8278 14.8115 11.8157 14.8735 10.8456 14.6555C9.87554 14.4375 8.98729 13.9486 8.28423 13.2455C7.58117 12.5425 7.09221 11.6542 6.87424 10.6841C6.65628 9.71403 6.71827 8.70199 7.053 7.76575L3.963 4.67575C1.407 6.94825 0 9.53125 0 9.53125C0 9.53125 4.5 17.7812 12 17.7812C13.4406 17.7762 14.8649 17.4761 16.185 16.8993ZM7.815 2.16325C9.13508 1.58639 10.5594 1.28621 12 1.28125C19.5 1.28125 24 9.53125 24 9.53125C24 9.53125 22.5915 12.1128 20.0385 14.3883L16.9455 11.2952C17.2802 10.359 17.3422 9.34697 17.1243 8.37688C16.9063 7.40679 16.4173 6.51854 15.7143 5.81548C15.0112 5.11242 14.123 4.62346 13.1529 4.40549C12.1828 4.18753 11.1707 4.24952 10.2345 4.58425L7.815 2.16325Z" fill="#55626D" fill-opacity="0.8"/>
<path d="M8.28725 9C8.20474 9.57647 8.25762 10.1642 8.44169 10.7167C8.62577 11.2692 8.93599 11.7712 9.34777 12.183C9.75954 12.5948 10.2616 12.905 10.814 13.0891C11.3665 13.2731 11.9543 13.326 12.5308 13.2435L8.28725 9ZM15.7123 10.062L11.4688 5.817C12.0452 5.73449 12.633 5.78737 13.1855 5.97145C13.7379 6.15552 14.24 6.46574 14.6517 6.87752C15.0635 7.28929 15.3737 7.79131 15.5578 8.34379C15.7419 8.89627 15.7948 9.48403 15.7123 10.0605V10.062ZM20.4688 19.062L2.46875 1.062L3.53075 0L21.5308 18L20.4688 19.062Z" fill="#55626D" fill-opacity="0.8"/>
</svg>
