<svg width="20" height="16" viewBox="0 0 20 16" fill="none" xmlns="http://www.w3.org/2000/svg">
<path d="M20 13V11.225C19.9965 10.8521 19.8692 10.4908 19.6381 10.1981C19.407 9.90532 19.0853 9.69759 18.7233 9.6075C18.371 9.51102 18.0601 9.30144 17.8385 9.01099C17.6168 8.72055 17.4968 8.36533 17.4968 8C17.4968 7.63467 17.6168 7.27945 17.8385 6.98901C18.0601 6.69856 18.371 6.48898 18.7233 6.3925C19.0853 6.30241 19.407 6.09468 19.6381 5.80192C19.8692 5.50916 19.9965 5.14795 20 4.775V3C20 2.33696 19.7366 1.70107 19.2678 1.23223C18.7989 0.763391 18.163 0.499999 17.5 0.499999H14.1667V3.83333C14.1667 4.05435 14.0789 4.26631 13.9226 4.42259C13.7663 4.57887 13.5543 4.66667 13.3333 4.66667C13.1123 4.66667 12.9004 4.57887 12.7441 4.42259C12.5878 4.26631 12.5 4.05435 12.5 3.83333V0.499999H4.16667C3.062 0.501322 2.00296 0.940733 1.22185 1.72185C0.440735 2.50296 0.00132321 3.562 0 4.66667L0 4.775C0.00354318 5.14795 0.130844 5.50916 0.361916 5.80192C0.592988 6.09468 0.914744 6.30241 1.27667 6.3925C1.62903 6.48898 1.93994 6.69856 2.16155 6.98901C2.38316 7.27945 2.5032 7.63467 2.5032 8C2.5032 8.36533 2.38316 8.72055 2.16155 9.01099C1.93994 9.30144 1.62903 9.51102 1.27667 9.6075C0.914744 9.69759 0.592988 9.90532 0.361916 10.1981C0.130844 10.4908 0.00354318 10.8521 0 11.225L0 11.3333C0.00132321 12.438 0.440735 13.497 1.22185 14.2782C2.00296 15.0593 3.062 15.4987 4.16667 15.5H12.5V12.1667C12.5 11.9457 12.5878 11.7337 12.7441 11.5774C12.9004 11.4211 13.1123 11.3333 13.3333 11.3333C13.5543 11.3333 13.7663 11.4211 13.9226 11.5774C14.0789 11.7337 14.1667 11.9457 14.1667 12.1667V15.5H17.5C18.163 15.5 18.7989 15.2366 19.2678 14.7678C19.7366 14.2989 20 13.663 20 13ZM12.5 8.83333V7.16667C12.5 6.94565 12.5878 6.73369 12.7441 6.57741C12.9004 6.42113 13.1123 6.33333 13.3333 6.33333C13.5543 6.33333 13.7663 6.42113 13.9226 6.57741C14.0789 6.73369 14.1667 6.94565 14.1667 7.16667V8.83333C14.1667 9.05435 14.0789 9.26631 13.9226 9.42259C13.7663 9.57887 13.5543 9.66667 13.3333 9.66667C13.1123 9.66667 12.9004 9.57887 12.7441 9.42259C12.5878 9.26631 12.5 9.05435 12.5 8.83333V8.83333Z" fill="white"/>
</svg>
