<svg width="17" height="21" viewBox="0 0 17 21" fill="none" xmlns="http://www.w3.org/2000/svg">
<path fill-rule="evenodd" clip-rule="evenodd" d="M4 0H12.28C14.4891 0 16.28 1.79086 16.28 4V16.62C16.28 18.8291 14.4891 20.62 12.28 20.62H4C1.79086 20.62 0 18.8291 0 16.62V4C0 1.79086 1.79086 0 4 0ZM10.53 6.08H3.83C3.42683 6.08 3.1 6.40683 3.1 6.81C3.1 7.21317 3.42683 7.54 3.83 7.54H10.53C10.9332 7.54 11.26 7.21317 11.26 6.81C11.26 6.40683 10.9332 6.08 10.53 6.08ZM8.62 15.54H3.83C3.42683 15.54 3.1 15.2132 3.1 14.81C3.1 14.4068 3.42683 14.08 3.83 14.08H8.62C9.02317 14.08 9.35 14.4068 9.35 14.81C9.35 15.2132 9.02317 15.54 8.62 15.54ZM3.83 11.54H12.45C12.8532 11.54 13.18 11.2132 13.18 10.81C13.18 10.4068 12.8532 10.08 12.45 10.08H3.83C3.42683 10.08 3.1 10.4068 3.1 10.81C3.1 11.2132 3.42683 11.54 3.83 11.54Z" fill="#637381"/>
</svg>
