<svg width="22" height="24" viewBox="0 0 22 24" fill="none" xmlns="http://www.w3.org/2000/svg">
<path fill-rule="evenodd" clip-rule="evenodd" d="M20.3552 14.6608C20.3585 15.3403 20.6573 15.9848 21.1737 16.4265C22.9395 18.0052 21.6883 20.7065 19.1858 20.7065H14.7421C14.1661 22.2786 12.6742 23.3276 11 23.3377C9.32028 23.3449 7.81949 22.2896 7.25793 20.7065H2.81423C0.311724 20.7065 -0.93953 18.0052 0.826258 16.4265C1.3427 15.9848 1.64147 15.3403 1.64483 14.6608V9.01257C1.64483 4.40515 5.83127 0.663086 11 0.663086C16.1687 0.663086 20.3552 4.40515 20.3552 9.01257V14.6608ZM9.22252 20.7065C9.64808 21.2573 10.304 21.581 11 21.5836C11.6795 21.5668 12.3153 21.2446 12.7307 20.7065H9.22252Z" fill="#919EAB"/>
</svg>
