<svg width="20" height="20" viewBox="0 0 20 20" fill="none" xmlns="http://www.w3.org/2000/svg">
<path fill-rule="evenodd" clip-rule="evenodd" d="M13.12 0H6C2.68629 0 0 2.68629 0 6V13.12C0 16.4337 2.68629 19.12 6 19.12H13.12C16.4337 19.12 19.12 16.4337 19.12 13.12V6C19.12 2.68629 16.4337 0 13.12 0ZM7.81 8.73C7.61782 8.74555 7.42728 8.68444 7.28 8.56C7.13705 8.42071 7.05643 8.22959 7.05643 8.03C7.05643 7.83041 7.13705 7.63929 7.28 7.5L7.77 7.01H6.89C5.81857 7.01 4.95 7.87857 4.95 8.95V10.27C4.97712 11.3219 5.83779 12.1603 6.89 12.16C7.30421 12.16 7.64 12.4958 7.64 12.91C7.64 13.3242 7.30421 13.66 6.89 13.66C4.99242 13.6545 3.45549 12.1176 3.45 10.22V8.9C3.45549 7.00242 4.99242 5.46549 6.89 5.46H7.77L7.28 4.97C7.13705 4.83071 7.05643 4.63959 7.05643 4.44C7.05643 4.24041 7.13705 4.04929 7.28 3.91C7.57282 3.61755 8.04718 3.61755 8.34 3.91L10.11 5.68C10.1781 5.75291 10.2323 5.83763 10.27 5.93C10.3496 6.11166 10.3496 6.31834 10.27 6.5C10.2347 6.59067 10.1801 6.67256 10.11 6.74L8.34 8.56C8.19219 8.68348 8.00206 8.74446 7.81 8.73ZM12.23 13.66C14.1276 13.6545 15.6645 12.1176 15.67 10.22V8.9C15.6645 7.00242 14.1276 5.46549 12.23 5.46C11.8158 5.46 11.48 5.79579 11.48 6.21C11.48 6.62421 11.8158 6.96 12.23 6.96C13.3014 6.96 14.17 7.82857 14.17 8.9V10.22C14.17 11.2914 13.3014 12.16 12.23 12.16H11.35L11.84 11.67C12.1154 11.3745 12.1072 10.914 11.8216 10.6284C11.536 10.3428 11.0755 10.3346 10.78 10.61L9.01 12.38C8.93987 12.4474 8.88527 12.5293 8.85 12.62C8.78001 12.8036 8.78001 13.0064 8.85 13.19C8.88768 13.2824 8.9419 13.3671 9.01 13.44L10.78 15.21C10.9228 15.3472 11.112 15.4257 11.31 15.43C11.5084 15.4277 11.6983 15.3489 11.84 15.21C11.9835 15.069 12.0644 14.8762 12.0644 14.675C12.0644 14.4738 11.9835 14.281 11.84 14.14L11.35 13.66H12.23Z" fill="#637381"/>
</svg>
