<svg width="47" height="36" viewBox="0 0 47 36" fill="none" xmlns="http://www.w3.org/2000/svg">
<g opacity="0.8">
<path d="M0.333984 20C0.333984 18.8954 1.22941 18 2.33398 18C3.43855 18 4.33398 18.8954 4.33398 20V36H0.333984V20Z" fill="#00A76F"/>
<path d="M6.33398 2C6.33398 0.895431 7.22941 0 8.33398 0C9.43855 0 10.334 0.895431 10.334 2V36H6.33398V2Z" fill="#00A76F"/>
<path d="M12.334 12C12.334 10.8954 13.2294 10 14.334 10C15.4386 10 16.334 10.8954 16.334 12V36H12.334V12Z" fill="#00A76F"/>
<path d="M18.334 16C18.334 14.8954 19.2294 14 20.334 14C21.4386 14 22.334 14.8954 22.334 16V36H18.334V16Z" fill="#00A76F"/>
<path d="M24.334 6C24.334 4.89543 25.2294 4 26.334 4C27.4386 4 28.334 4.89543 28.334 6V36H24.334V6Z" fill="#00A76F"/>
<path d="M30.334 22C30.334 20.8954 31.2294 20 32.334 20C33.4386 20 34.334 20.8954 34.334 22V36H30.334V22Z" fill="#00A76F"/>
<path d="M36.334 12C36.334 10.8954 37.2294 10 38.334 10C39.4386 10 40.334 10.8954 40.334 12V36H36.334V12Z" fill="#00A76F"/>
<path d="M42.334 16C42.334 14.8954 43.2294 14 44.334 14C45.4386 14 46.334 14.8954 46.334 16V36H42.334V16Z" fill="#00A76F"/>
</g>
</svg>
