<svg width="22" height="16" viewBox="0 0 22 16" fill="none" xmlns="http://www.w3.org/2000/svg">
<path d="M11.1791 7.34988C12.8166 7.35011 14.1518 6.03718 14.1791 4.39988V3.27988C14.1792 2.61516 13.9124 1.97822 13.4386 1.51196C12.9648 1.04571 12.3237 0.789162 11.6591 0.799884H10.7091C9.34331 0.805391 8.23906 1.91411 8.23907 3.27988V4.39988C8.26566 6.01411 9.56494 7.31781 11.1791 7.34988Z" fill="#637381"/>
<path d="M21.7791 12.5099L21.6591 10.9999C21.5293 10.2416 20.8783 9.68291 20.1091 9.66988H15.7891C15.7228 9.65957 15.6553 9.65957 15.5891 9.66988C15.2058 9.2394 14.6554 8.9952 14.0791 8.99988H8.28906C7.6787 8.99722 7.10054 9.27341 6.71906 9.74988C6.55567 9.69014 6.38303 9.65968 6.20906 9.65988H1.88906C1.11665 9.67378 0.464474 10.2376 0.339062 10.9999L0.219062 12.5599C0.11857 13.0383 0.234044 13.5366 0.534693 13.9221C0.835342 14.3075 1.2906 14.5409 1.77906 14.5599H6.32906C6.41877 14.5702 6.50936 14.5702 6.59906 14.5599C6.99569 14.9977 7.55835 15.2481 8.14906 15.2499H14.2191C14.7918 15.2472 15.3381 15.0084 15.7291 14.5899H20.2191C20.7253 14.5759 21.1974 14.3316 21.5012 13.9265C21.8051 13.5214 21.9074 12.9998 21.7791 12.5099Z" fill="#637381"/>
<path d="M17.9991 8.10988C19.2141 8.10988 20.1991 7.12491 20.1991 5.90988V5.05988C20.1992 4.56045 19.9975 4.08215 19.6397 3.73374C19.2818 3.38532 18.7983 3.19639 18.2991 3.20988H17.5991C16.5773 3.20988 15.7491 4.03816 15.7491 5.05988V5.90988C15.7489 6.50213 15.9875 7.06942 16.411 7.48347C16.8345 7.89751 17.407 8.12334 17.9991 8.10988Z" fill="#637381"/>
<path d="M4.04906 8.10988C5.26409 8.10988 6.24906 7.12491 6.24906 5.90988V5.05988C6.24906 4.03816 5.42079 3.20988 4.39906 3.20988H3.69906C2.67734 3.20988 1.84906 4.03816 1.84906 5.05988V5.90988C1.84906 7.12491 2.83404 8.10988 4.04906 8.10988Z" fill="#637381"/>
</svg>
