<svg width="16" height="20" viewBox="0 0 16 20" fill="none" xmlns="http://www.w3.org/2000/svg">
<path d="M12.6406 20H3.36058C2.34976 19.9633 1.40815 19.477 0.792929 18.6742C0.177708 17.8713 -0.046851 16.8356 0.180583 15.85L0.420583 14.71C0.696618 13.1668 2.0232 12.0327 3.59058 12H12.4106C13.978 12.0327 15.3045 13.1668 15.5806 14.71L15.8206 15.85C16.048 16.8356 15.8235 17.8713 15.2082 18.6742C14.593 19.477 13.6514 19.9633 12.6406 20Z" fill="#637381"/>
<path d="M8.50058 10H7.50058C5.29144 10 3.50058 8.20915 3.50058 6.00001V3.36001C3.49792 2.46807 3.85106 1.61189 4.48176 0.981192C5.11246 0.350491 5.96864 -0.00265152 6.86058 1.49917e-05H9.14058C10.0325 -0.00265152 10.8887 0.350491 11.5194 0.981192C12.1501 1.61189 12.5033 2.46807 12.5006 3.36001V6.00001C12.5006 7.06088 12.0792 8.0783 11.329 8.82844C10.5789 9.57859 9.56145 10 8.50058 10Z" fill="#637381"/>
</svg>
