<svg width="16" height="16" viewBox="0 0 16 16" fill="none" xmlns="http://www.w3.org/2000/svg">
  <path fill-rule="evenodd" clip-rule="evenodd"
        d="M10.0447 1.16933L14.2132 4.24828C15.0165 4.82967 15.4945 5.75926 15.5 6.75091V12.3246C15.4484 14.1118 13.9638 15.5223 12.1763 15.4825H3.83158C2.041 15.5267 0.551623 14.115 0.5 12.3246V6.75091C0.505494 5.75926 0.983489 4.82967 1.78684 4.24828L5.95526 1.16933C7.17235 0.27689 8.82765 0.27689 10.0447 1.16933ZM4.44737 12.143H11.5526C11.8796 12.143 12.1447 11.8779 12.1447 11.5509C12.1447 11.2239 11.8796 10.9588 11.5526 10.9588H4.44737C4.12036 10.9588 3.85526 11.2239 3.85526 11.5509C3.85526 11.8779 4.12036 12.143 4.44737 12.143Z"
        fill="white"/>
</svg>
