<svg width="20" height="24" viewBox="0 0 20 24" fill="none" xmlns="http://www.w3.org/2000/svg">
<path d="M8.3615 23.2503C8.71572 22.9004 8.91508 22.4232 8.91508 21.9253C8.91508 21.4274 8.71572 20.9502 8.3615 20.6003L6.624 18.8503H13.4615C14.497 18.8503 15.3365 18.0108 15.3365 16.9753C15.3365 15.9397 14.497 15.1003 13.4615 15.1003H6.624L8.3615 13.3628C9.0499 12.624 9.02959 11.4727 8.31556 10.7587C7.60153 10.0447 6.45028 10.0244 5.7115 10.7128L0.774004 15.7128C0.688153 15.8029 0.608787 15.899 0.536503 16.0003L0.474003 16.1003L0.361504 16.3128V16.4628L0.299004 16.6628C0.248835 16.9103 0.248835 17.1653 0.299004 17.4128L0.361504 17.6378V17.7628L0.486503 17.9878V18.0878L0.724004 18.3628L5.6615 23.3628C6.03159 23.7119 6.52691 23.8968 7.03522 23.8756C7.54352 23.8544 8.02174 23.6289 8.3615 23.2503Z" fill="black"/>
<path d="M11.6365 10.6753C11.2824 11.025 11.0842 11.5026 11.0865 12.0003C11.0798 12.4988 11.2787 12.978 11.6365 13.3253C11.9864 13.6795 12.4636 13.8788 12.9615 13.8788C13.4594 13.8788 13.9366 13.6795 14.2865 13.3253L19.224 8.32527C19.3977 8.14794 19.5375 7.94036 19.6365 7.71277C19.8035 7.26964 19.8035 6.7809 19.6365 6.33777C19.5379 6.11735 19.3978 5.91791 19.224 5.75027L14.224 0.750273C13.4892 0.0259508 12.3089 0.0259508 11.574 0.750273C11.2198 1.10019 11.0204 1.57737 11.0204 2.07527C11.0204 2.57318 11.2198 3.05036 11.574 3.40027L13.374 5.18777H6.5365C5.50097 5.18777 4.6615 6.02724 4.6615 7.06277C4.6615 8.09831 5.50097 8.93777 6.5365 8.93777H13.374L11.6365 10.6753Z" fill="black"/>
</svg>
