<svg width="16" height="16" viewBox="0 0 16 16" fill="none" xmlns="http://www.w3.org/2000/svg">
<path d="M7.99931 14.8917C7.8336 14.8915 7.67474 14.8256 7.55764 14.7083L1.72431 8.875C1.568 8.71423 1.50934 8.48229 1.57042 8.26654C1.6315 8.05079 1.80304 7.88402 2.02042 7.82904C2.2378 7.77406 2.468 7.83923 2.62431 8L7.99931 13.375L13.3743 8C13.5301 7.83279 13.7648 7.76396 13.9862 7.82051C14.2077 7.87707 14.3806 8.04998 14.4371 8.27143C14.4937 8.49287 14.4249 8.72752 14.2576 8.88333L8.42431 14.7167C8.31001 14.8269 8.15806 14.8894 7.99931 14.8917Z" fill="#303187"/>
<path d="M7.99931 14.8833C7.65601 14.8788 7.3788 14.6016 7.37431 14.2583V1.75833C7.37431 1.53504 7.49343 1.32871 7.68681 1.21707C7.88018 1.10542 8.11843 1.10542 8.31181 1.21707C8.50518 1.32871 8.62431 1.53504 8.62431 1.75833V14.2583C8.61982 14.6016 8.34261 14.8788 7.99931 14.8833Z" fill="#303187"/>
<path d="M7.99931 15.5C7.6679 15.4997 7.35017 15.3678 7.11597 15.1333L1.28264 9.3C0.794789 8.80985 0.796654 8.01702 1.28681 7.52917C1.77696 7.04132 2.56979 7.04318 3.05764 7.53333L7.99931 12.4917L12.9326 7.55C13.4205 7.05985 14.2133 7.05798 14.7035 7.54583C15.1936 8.03369 15.1955 8.82651 14.7076 9.31667L8.87431 15.15C8.63947 15.3764 8.32547 15.502 7.99931 15.5Z" fill="#303187"/>
<path d="M7.99931 15.5C7.30895 15.5 6.74931 14.9404 6.74931 14.25V1.75C6.74931 1.05964 7.30895 0.5 7.99931 0.5C8.68966 0.5 9.24931 1.05964 9.24931 1.75V14.25C9.24931 14.9404 8.68966 15.5 7.99931 15.5Z" fill="#303187"/>
</svg>
