<svg width="18" height="18" viewBox="0 0 18 18" fill="none" xmlns="http://www.w3.org/2000/svg">
<path fill-rule="evenodd" clip-rule="evenodd" d="M3.84062 0.666992H14.1581C15.9114 0.666992 17.3327 2.08831 17.3327 3.8416V14.1591C17.3327 15.9123 15.9114 17.3337 14.1581 17.3337H3.84062C2.08733 17.3337 0.666016 15.9123 0.666016 14.1591V3.8416C0.666016 2.08831 2.08733 0.666992 3.84062 0.666992ZM13.3644 9.99239C13.6932 9.99239 13.9597 9.72589 13.9597 9.39715V6.98445C13.9554 6.6575 13.6914 6.39349 13.3644 6.38921H10.9835C10.6547 6.38921 10.3882 6.65571 10.3882 6.98445C10.3882 7.31319 10.6547 7.57969 10.9835 7.57969H11.6898L8.86443 10.4051L7.27713 8.81779C6.85591 8.39803 6.17453 8.39803 5.75332 8.81779L3.71363 10.8575C3.48153 11.0899 3.48153 11.4663 3.71363 11.6987C3.82465 11.8111 3.97628 11.8741 4.13427 11.8733C4.29244 11.875 4.44441 11.8119 4.5549 11.6987L6.54697 9.79398L8.13427 11.3813C8.55548 11.801 9.23687 11.801 9.65808 11.3813L12.7692 8.24636V9.39715C12.7692 9.72589 13.0357 9.99239 13.3644 9.99239Z" fill="white"/>
</svg>
