<svg width="17" height="17" viewBox="0 0 17 17" fill="none" xmlns="http://www.w3.org/2000/svg">
<path fill-rule="evenodd" clip-rule="evenodd" d="M12.991 1.64102L15.741 4.39102C16.366 5.01667 16.7167 5.86503 16.716 6.74935V10.6327C16.7167 11.517 16.366 12.3654 15.741 12.991L12.991 15.741C12.3654 16.366 11.517 16.7167 10.6327 16.716H6.74935C5.86503 16.7167 5.01667 16.366 4.39102 15.741L1.64102 12.991C1.01605 12.3654 0.665321 11.517 0.666017 10.6327V6.74935C0.665321 5.86503 1.01605 5.01667 1.64102 4.39102L4.39102 1.64102C5.01667 1.01605 5.86503 0.665321 6.74935 0.666017H10.6327C11.517 0.665321 12.3654 1.01605 12.991 1.64102ZM14.7494 12.0244C15.1143 11.6539 15.3154 11.1526 15.3077 10.6327V6.72435C15.3088 6.21305 15.1081 5.72196 14.7494 5.35768L12.0244 2.63268C11.6478 2.26145 11.1362 2.05981 10.6077 2.07435H6.72435C6.21305 2.07326 5.72196 2.27389 5.35768 2.63268L2.63268 5.35768C2.26773 5.72809 2.0666 6.22941 2.07435 6.74935V10.6577C2.07326 11.169 2.27389 11.6601 2.63268 12.0244L5.35768 14.7494C5.72809 15.1143 6.22941 15.3154 6.74935 15.3077H10.6577C11.169 15.3088 11.6601 15.1081 12.0244 14.7494L14.7494 12.0244Z" fill="white"/>
<path d="M8.69102 10.241C8.34584 10.241 8.06602 10.5208 8.06602 10.866C8.06602 11.2112 8.34584 11.491 8.69102 11.491C9.0362 11.491 9.31602 11.2112 9.31602 10.866C9.31602 10.5208 9.0362 10.241 8.69102 10.241Z" fill="white"/>
<path d="M8.69102 9.09935C9.03432 9.09486 9.31153 8.81765 9.31602 8.47435V5.89102C9.31602 5.54584 9.0362 5.26602 8.69102 5.26602C8.34584 5.26602 8.06602 5.54584 8.06602 5.89102V8.47435C8.07051 8.81765 8.34772 9.09486 8.69102 9.09935Z" fill="white"/>
</svg>
