<svg width="19" height="18" viewBox="0 0 19 18" fill="none" xmlns="http://www.w3.org/2000/svg">
<path fill-rule="evenodd" clip-rule="evenodd" d="M9.45 1.38462C5.03385 1.38462 1.45385 4.79414 1.45385 9C1.45385 13.2059 5.03385 16.6154 9.45 16.6154C13.8662 16.6154 17.4462 13.2059 17.4462 9C17.4462 4.79414 13.8662 1.38462 9.45 1.38462ZM0 9C0 4.02944 4.23091 0 9.45 0C14.6691 0 18.9 4.02944 18.9 9C18.9 13.9706 14.6691 18 9.45 18C4.23091 18 0 13.9706 0 9ZM9.45 3.69231C9.85147 3.69231 10.1769 4.00226 10.1769 4.38462V11.944L12.8129 9.43354C13.0968 9.16318 13.5571 9.16318 13.8409 9.43354C14.1248 9.70391 14.1248 10.1423 13.8409 10.4126L9.96401 14.1049C9.68013 14.3753 9.21987 14.3753 8.93599 14.1049L5.05906 10.4126C4.77518 10.1423 4.77518 9.70391 5.05906 9.43354C5.34295 9.16318 5.80321 9.16318 6.08709 9.43354L8.72308 11.944V4.38462C8.72308 4.00226 9.04853 3.69231 9.45 3.69231Z" fill="#303187"/>
</svg>
