<svg width="18" height="18" viewBox="0 0 18 18" fill="none" xmlns="http://www.w3.org/2000/svg">
<path fill-rule="evenodd" clip-rule="evenodd" d="M4.91602 0.667392H13.291C15.5572 0.648244 17.4231 2.44383 17.491 4.70906V10.7757C17.4231 13.0442 15.5521 14.8411 13.2827 14.8174H11.9827C11.6588 14.8184 11.3527 14.9653 11.1493 15.2174L9.91602 16.7841C9.7102 17.0318 9.40479 17.1752 9.08268 17.1752C8.76057 17.1752 8.45517 17.0318 8.24935 16.7841L7.00768 15.2174C6.80434 14.9653 6.4982 14.8184 6.17435 14.8174H4.91602C2.63051 14.8641 0.734117 13.0607 0.666016 10.7757V4.70906C0.734117 2.42409 2.63051 0.620658 4.91602 0.667392ZM5.95768 9.40073C6.30286 9.40073 6.58268 9.1209 6.58268 8.77573V6.77573C6.58268 6.43055 6.30286 6.15073 5.95768 6.15073C5.6125 6.15073 5.33268 6.43055 5.33268 6.77573V8.77573C5.33268 9.1209 5.6125 9.40073 5.95768 9.40073ZM9.70768 8.77573C9.70768 9.1209 9.42786 9.40073 9.08268 9.40073C8.73751 9.40073 8.45768 9.1209 8.45768 8.77573V6.77573C8.45768 6.43055 8.73751 6.15073 9.08268 6.15073C9.42786 6.15073 9.70768 6.43055 9.70768 6.77573V8.77573ZM12.2077 9.40073C12.5529 9.40073 12.8327 9.1209 12.8327 8.77573V6.77573C12.8327 6.43055 12.5529 6.15073 12.2077 6.15073C11.8625 6.15073 11.5827 6.43055 11.5827 6.77573V8.77573C11.5827 9.1209 11.8625 9.40073 12.2077 9.40073Z" fill="white"/>
</svg>
