<svg width="20" height="20" viewBox="0 0 20 20" fill="none" xmlns="http://www.w3.org/2000/svg">
<path fill-rule="evenodd" clip-rule="evenodd" d="M10.5293 0.52932L18.9793 8.97932C19.773 9.98622 19.6175 11.4426 18.6293 12.2593L12.2593 18.6293C11.4426 19.6175 9.98622 19.773 8.97932 18.9793L0.52932 10.5293C0.144638 10.1337 -0.0456751 9.58838 0.00931994 9.03932L0.44932 3.03932C0.589215 1.67103 1.67103 0.589215 3.03932 0.44932L9.03932 0.00931994C9.58838 -0.0456751 10.1337 0.144638 10.5293 0.52932ZM5.67932 7.10832C6.05734 7.10832 6.41882 6.95325 6.67932 6.67932C6.95325 6.41881 7.10832 6.05734 7.10832 5.67932C7.10832 5.3013 6.95325 4.93983 6.67932 4.67932C6.12704 4.12704 5.23161 4.12704 4.67932 4.67932C4.12704 5.2316 4.12704 6.12704 4.67932 6.67932C4.93983 6.95325 5.3013 7.10832 5.67932 7.10832Z" fill="#637381"/>
</svg>
