<svg width="18" height="18" viewBox="0 0 18 18" fill="none" xmlns="http://www.w3.org/2000/svg">
<path fill-rule="evenodd" clip-rule="evenodd" d="M17.3327 9.00002C17.3327 13.6025 13.6018 17.3334 8.99935 17.3334C4.39685 17.3334 0.666016 13.6025 0.666016 9.00002C0.666016 4.39752 4.39685 0.666687 8.99935 0.666687C13.6018 0.666687 17.3327 4.39752 17.3327 9.00002ZM6.47435 6.47502C6.59154 6.35798 6.75039 6.29224 6.91602 6.29224C7.08164 6.29224 7.24049 6.35798 7.35768 6.47502L8.99935 8.11669L10.641 6.47502C10.7595 6.36462 10.9162 6.30452 11.0781 6.30737C11.24 6.31023 11.3945 6.37583 11.509 6.49034C11.6235 6.60485 11.6891 6.75933 11.692 6.92125C11.6949 7.08317 11.6347 7.23987 11.5243 7.35835L9.88268 9.00002L11.5243 10.6417C11.6347 10.7602 11.6949 10.9169 11.692 11.0788C11.6891 11.2407 11.6235 11.3952 11.509 11.5097C11.3945 11.6242 11.24 11.6898 11.0781 11.6927C10.9162 11.6955 10.7595 11.6354 10.641 11.525L8.99935 9.88335L7.35768 11.525C7.2392 11.6354 7.0825 11.6955 6.92058 11.6927C6.75866 11.6898 6.60418 11.6242 6.48966 11.5097C6.37515 11.3952 6.30956 11.2407 6.3067 11.0788C6.30385 10.9169 6.36395 10.7602 6.47435 10.6417L8.11602 9.00002L6.47435 7.35835C6.35731 7.24117 6.29157 7.08231 6.29157 6.91669C6.29157 6.75106 6.35731 6.59221 6.47435 6.47502Z" fill="white"/>
</svg>
