<svg width="22" height="24" viewBox="0 0 22 24" fill="none" xmlns="http://www.w3.org/2000/svg">
<path d="M17.0004 7.7998C17.0004 11.1135 14.3141 13.7998 11.0004 13.7998M17.0004 7.7998C17.0004 4.4861 14.3141 1.7998 11.0004 1.7998M17.0004 7.7998H5.00039M11.0004 13.7998C7.68668 13.7998 5.00039 11.1135 5.00039 7.7998M11.0004 13.7998C12.3259 13.7998 13.4004 11.1135 13.4004 7.7998C13.4004 4.4861 12.3259 1.7998 11.0004 1.7998M11.0004 13.7998C9.67491 13.7998 8.60039 11.1135 8.60039 7.7998C8.60039 4.4861 9.67491 1.7998 11.0004 1.7998M5.00039 7.7998C5.00039 4.4861 7.68668 1.7998 11.0004 1.7998M13.4004 19.7998C13.4004 21.1253 12.3259 22.1998 11.0004 22.1998C9.67491 22.1998 8.60039 21.1253 8.60039 19.7998M13.4004 19.7998C13.4004 18.4743 12.3259 17.3998 11.0004 17.3998C9.67491 17.3998 8.60039 18.4743 8.60039 19.7998M13.4004 19.7998H20.6004M8.60039 19.7998H1.40039" stroke="#637381" stroke-width="2" stroke-linecap="round" stroke-linejoin="round"/>
</svg>
