<svg width="20" height="20" viewBox="0 0 20 20" fill="none" xmlns="http://www.w3.org/2000/svg">
<g clip-path="url(#clip0_425_51934)">
<path d="M15.8333 0H4.16667C3.062 0.00132321 2.00296 0.440735 1.22185 1.22185C0.440735 2.00296 0.00132321 3.062 0 4.16667L0 15.8333C0.00132321 16.938 0.440735 17.997 1.22185 18.7782C2.00296 19.5593 3.062 19.9987 4.16667 20V17.5C4.16667 15.9529 4.78125 14.4692 5.87521 13.3752C6.96917 12.2812 8.4529 11.6667 10 11.6667C11.5471 11.6667 13.0308 12.2812 14.1248 13.3752C15.2188 14.4692 15.8333 15.9529 15.8333 17.5V20C16.938 19.9987 17.997 19.5593 18.7782 18.7782C19.5593 17.997 19.9987 16.938 20 15.8333V4.16667C19.9987 3.062 19.5593 2.00296 18.7782 1.22185C17.997 0.440735 16.938 0.00132321 15.8333 0V0ZM10 10C9.34073 10 8.69626 9.8045 8.1481 9.43823C7.59994 9.07196 7.17269 8.55137 6.9204 7.94228C6.66811 7.33319 6.6021 6.66297 6.73072 6.01637C6.85933 5.36976 7.1768 4.77582 7.64298 4.30964C8.10915 3.84347 8.7031 3.526 9.3497 3.39738C9.9963 3.26877 10.6665 3.33478 11.2756 3.58707C11.8847 3.83936 12.4053 4.2666 12.7716 4.81477C13.1378 5.36293 13.3333 6.0074 13.3333 6.66667C13.3333 7.55072 12.9821 8.39857 12.357 9.02369C11.7319 9.64881 10.8841 10 10 10Z" fill="white"/>
<path d="M10.0006 8.33333C10.9211 8.33333 11.6673 7.58714 11.6673 6.66666C11.6673 5.74619 10.9211 5 10.0006 5C9.08018 5 8.33398 5.74619 8.33398 6.66666C8.33398 7.58714 9.08018 8.33333 10.0006 8.33333Z" fill="white"/>
<path d="M10.0007 13.334C8.89599 13.3353 7.83695 13.7747 7.05583 14.5558C6.27472 15.3369 5.83531 16.396 5.83398 17.5006V20.0006H14.1673V17.5006C14.166 16.396 13.7266 15.3369 12.9455 14.5558C12.1644 13.7747 11.1053 13.3353 10.0007 13.334V13.334Z" fill="white"/>
</g>
<defs>
<clipPath id="clip0_425_51934">
<rect width="20" height="20" fill="white"/>
</clipPath>
</defs>
</svg>
