<svg width="19" height="18" viewBox="0 0 19 18" fill="none" xmlns="http://www.w3.org/2000/svg">
<path d="M2.94728 0.666992H15.5488C16.5909 0.667403 17.5301 1.2562 17.9288 2.15898C18.3275 3.06176 18.1073 4.10085 17.3707 4.79199L13.1316 8.76699C12.6541 9.22704 12.3836 9.84171 12.3762 10.4837V14.142C12.3748 14.9023 11.9932 15.6181 11.3454 16.0753L10.2434 16.8587C9.46118 17.4088 8.41433 17.4965 7.54054 17.085C6.66674 16.6736 6.11651 15.8339 6.11989 14.917V10.4837C6.11249 9.84171 5.84201 9.22704 5.3645 8.76699L1.12547 4.79199C0.388855 4.10085 0.168573 3.06176 0.567285 2.15898C0.965997 1.2562 1.90524 0.667403 2.94728 0.666992Z" fill="#637381"/>
</svg>
