<svg width="20" height="20" viewBox="0 0 20 20" fill="none" xmlns="http://www.w3.org/2000/svg">
<path d="M4.89945 14.5299C4.89945 14.4029 5.00243 14.2999 5.12945 14.2999H5.46945C5.59648 14.2999 5.69945 14.4029 5.69945 14.5299V14.8699C5.69945 14.997 5.59648 15.0999 5.46945 15.0999H5.12945C5.00243 15.0999 4.89945 14.997 4.89945 14.8699V14.5299Z" fill="#637381"/>
<path d="M14.2995 14.5299C14.2995 14.4029 14.4024 14.2999 14.5295 14.2999H14.8695C14.9965 14.2999 15.0995 14.4029 15.0995 14.5299V14.8699C15.0995 14.997 14.9965 15.0999 14.8695 15.0999H14.5295C14.4024 15.0999 14.2995 14.997 14.2995 14.8699V14.5299Z" fill="#637381"/>
<path d="M4.89945 5.12994C4.89945 5.00292 5.00243 4.89994 5.12945 4.89994H5.46945C5.59648 4.89994 5.69945 5.00292 5.69945 5.12994V5.46994C5.69945 5.59697 5.59648 5.69994 5.46945 5.69994H5.12945C5.00243 5.69994 4.89945 5.59697 4.89945 5.46994V5.12994Z" fill="#637381"/>
<path fill-rule="evenodd" clip-rule="evenodd" d="M13.5595 0.439941H6.43945C3.12574 0.439941 0.439453 3.12623 0.439453 6.43994V13.5599C0.439453 16.8736 3.12574 19.5599 6.43945 19.5599H13.5595C16.8732 19.5599 19.5595 16.8736 19.5595 13.5599V6.43994C19.5595 3.12623 16.8732 0.439941 13.5595 0.439941ZM3.34945 5.12994C3.34945 4.14687 4.14639 3.34994 5.12945 3.34994H5.47945C6.22444 3.35948 6.88562 3.82947 7.13945 4.52994H10.7095C11.1036 4.57478 11.4013 4.90828 11.4013 5.30494C11.4013 5.70161 11.1036 6.0351 10.7095 6.07994H7.13945C6.88472 6.77831 6.22281 7.24483 5.47945 7.24994H5.12945C4.15028 7.24996 3.35495 6.4591 3.34945 5.47994V5.12994ZM5.47945 16.6499C6.45861 16.6444 7.24947 15.8491 7.24945 14.8699V14.5199C7.24435 13.7766 6.77782 13.1147 6.07945 12.8599V9.28994C6.07947 9.08398 5.99697 8.8866 5.8504 8.7419C5.70383 8.59721 5.5054 8.51727 5.29945 8.51994C5.09442 8.51723 4.89698 8.59748 4.75199 8.74247C4.60699 8.88747 4.52674 9.0849 4.52945 9.28994V12.8599C3.82898 13.1138 3.35899 13.775 3.34945 14.5199V14.8699C3.34945 15.853 4.14639 16.6499 5.12945 16.6499H5.47945ZM16.6495 14.8699C16.6495 15.853 15.8525 16.6499 14.8695 16.6499H14.5195C13.7745 16.6404 13.1133 16.1704 12.8595 15.4699H9.28945C9.08442 15.4727 8.88698 15.3924 8.74199 15.2474C8.59699 15.1024 8.51674 14.905 8.51945 14.6999C8.51678 14.494 8.59672 14.2956 8.74142 14.149C8.88611 14.0024 9.08349 13.9199 9.28945 13.9199H12.8595C13.1142 13.2216 13.7761 12.755 14.5195 12.7499H14.8695C15.8486 12.7499 16.644 13.5408 16.6495 14.5199V14.8699ZM15.4695 7.13994C16.1699 6.8861 16.6399 6.22493 16.6495 5.47994V5.12994C16.6495 4.14687 15.8525 3.34994 14.8695 3.34994H14.5195C13.5403 3.35544 12.7494 4.15077 12.7495 5.12994V5.47994C12.7546 6.2233 13.2211 6.88521 13.9195 7.13994V10.7099C13.9643 11.1041 14.2978 11.4018 14.6945 11.4018C15.0911 11.4018 15.4246 11.1041 15.4695 10.7099V7.13994Z" fill="#637381"/>
<path d="M14.2995 5.12994C14.2995 5.00292 14.4024 4.89994 14.5295 4.89994H14.8695C14.9965 4.89994 15.0995 5.00292 15.0995 5.12994V5.46994C15.0995 5.59697 14.9965 5.69994 14.8695 5.69994H14.5295C14.4024 5.69994 14.2995 5.59697 14.2995 5.46994V5.12994Z" fill="#637381"/>
</svg>
