<svg width="21" height="20" viewBox="0 0 21 20" fill="none" xmlns="http://www.w3.org/2000/svg">
<path fill-rule="evenodd" clip-rule="evenodd" d="M20.107 10.7904L18.417 2.65038C18.095 1.10653 16.7341 0.000301546 15.1571 0.000381449H5.10705C3.51124 -0.0236256 2.12278 1.08798 1.79705 2.65038L0.10705 10.7904C-0.184973 11.686 0.134188 12.6677 0.89705 13.2204L8.82705 18.9804C9.58846 19.5405 10.6256 19.5405 11.387 18.9804L19.317 13.2204C20.0799 12.6677 20.3991 11.686 20.107 10.7904ZM6.93705 7.00038L9.04705 4.89038C9.33987 4.59793 9.81423 4.59793 10.107 4.89038C10.25 5.02967 10.3306 5.22079 10.3306 5.42038C10.3306 5.61997 10.25 5.81109 10.107 5.95038L7.99705 8.06038C7.85921 8.20502 7.6668 8.28489 7.46705 8.28038C7.26798 8.28132 7.07693 8.20202 6.93705 8.06038C6.6446 7.76756 6.6446 7.2932 6.93705 7.00038ZM7.47705 11.7904L13.7971 5.43038V5.47038C13.9977 5.28341 14.0803 5.00183 14.0124 4.73609C13.9446 4.47036 13.7371 4.26286 13.4713 4.195C13.2056 4.12713 12.924 4.20973 12.7371 4.41038L6.41705 10.7304C6.27411 10.8697 6.19348 11.0608 6.19348 11.2604C6.19348 11.46 6.27411 11.6511 6.41705 11.7904C6.55489 11.935 6.7473 12.0149 6.94705 12.0104C7.14612 12.0113 7.33717 11.932 7.47705 11.7904Z" fill="#637381"/>
</svg>
