<svg width="20" height="20" viewBox="0 0 20 20" fill="none" xmlns="http://www.w3.org/2000/svg">
<path opacity="0.5" d="M5.20898 15.8331C5.20889 15.961 5.24798 16.0857 5.32098 16.1906C5.39398 16.2955 5.49739 16.3755 5.61726 16.4198C5.73713 16.4641 5.86771 16.4707 5.9914 16.4385C6.11508 16.4063 6.22592 16.3369 6.30898 16.2398L11.309 10.4065C11.406 10.2932 11.4594 10.149 11.4594 9.99981C11.4594 9.85065 11.406 9.70641 11.309 9.59315L6.30898 3.75981C6.22592 3.66268 6.11508 3.59335 5.9914 3.56116C5.86771 3.52897 5.73713 3.53548 5.61726 3.57979C5.49739 3.62411 5.39398 3.70411 5.32098 3.80901C5.24798 3.91392 5.20889 4.03868 5.20898 4.16648V15.8331Z" fill="#FFAB00"/>
<path fill-rule="evenodd" clip-rule="evenodd" d="M8.75973 16.308C8.69738 16.2545 8.64617 16.1893 8.60903 16.1161C8.57189 16.0428 8.54954 15.963 8.54328 15.8811C8.53701 15.7992 8.54694 15.7169 8.57249 15.6389C8.59805 15.5608 8.63874 15.4886 8.69223 15.4263L13.3431 9.99963L8.69223 4.57296C8.63817 4.51073 8.59696 4.43842 8.57096 4.3602C8.54496 4.28197 8.5347 4.19938 8.54075 4.11717C8.54681 4.03496 8.56907 3.95476 8.60625 3.88119C8.64343 3.80762 8.69479 3.74213 8.75739 3.68849C8.81998 3.63486 8.89257 3.59413 8.97097 3.56866C9.04937 3.54319 9.13203 3.53349 9.2142 3.5401C9.29636 3.54671 9.37641 3.56951 9.44973 3.60719C9.52305 3.64487 9.58819 3.69667 9.6414 3.75963L14.6414 9.59296C14.7385 9.70623 14.7918 9.85047 14.7918 9.99963C14.7918 10.1488 14.7385 10.293 14.6414 10.4063L9.6414 16.2396C9.58802 16.302 9.52286 16.3533 9.44965 16.3905C9.37644 16.4278 9.29661 16.4502 9.21473 16.4565C9.13285 16.4629 9.05052 16.453 8.97244 16.4275C8.89437 16.402 8.82209 16.3614 8.75973 16.308Z" fill="#FFAB00"/>
</svg>
