<svg width="10" height="6" viewBox="0 0 10 6" fill="none" xmlns="http://www.w3.org/2000/svg">
<path d="M4.92533 5.33353C4.76956 5.33384 4.6186 5.27959 4.49866 5.1802L0.498662 1.84687C0.215156 1.61122 0.176354 1.19037 0.411996 0.906866C0.647637 0.623359 1.06849 0.584557 1.352 0.820199L4.92533 3.80687L8.49866 0.926866C8.63639 0.815019 8.81302 0.762686 8.98945 0.781455C9.16588 0.800224 9.32755 0.888546 9.43866 1.02687C9.56208 1.16544 9.62217 1.34918 9.60445 1.5339C9.58674 1.71863 9.49284 1.88761 9.34533 2.0002L5.34533 5.2202C5.22194 5.30388 5.07406 5.34378 4.92533 5.33353Z" fill="#212B36"/>
</svg>
