<svg width="16" height="17" viewBox="0 0 16 17" fill="none" xmlns="http://www.w3.org/2000/svg">
<path d="M13.2143 0.92361C13.3285 0.970918 13.4261 1.05104 13.4948 1.15383C13.5634 1.25663 13.6001 1.37748 13.6001 1.50111V5.03694C13.6001 5.2027 13.5342 5.36167 13.417 5.47888C13.2998 5.59609 13.1408 5.66194 12.9751 5.66194H9.43925C9.31572 5.66183 9.19499 5.62512 9.09231 5.55644C8.98963 5.48775 8.90961 5.39018 8.86235 5.27605C8.81509 5.16191 8.80271 5.03633 8.82678 4.91516C8.85085 4.794 8.91029 4.68268 8.99759 4.59528L10.3326 3.25861C9.1063 2.74509 7.74487 2.65039 6.45929 2.98919C5.17372 3.32799 4.03579 4.08137 3.22186 5.13257C2.40794 6.18376 1.96347 7.47408 1.95734 8.80353C1.95121 10.133 2.38376 11.4273 3.18796 12.486C3.99216 13.5447 5.12309 14.3085 6.40549 14.6591C7.68788 15.0098 9.05013 14.9276 10.2811 14.4254C11.5121 13.9233 12.543 13.0291 13.2142 11.8814C13.8854 10.7338 14.1593 9.39686 13.9934 8.07778C13.9762 7.91507 14.0236 7.75211 14.1252 7.6239C14.2268 7.49569 14.3747 7.41245 14.537 7.39205C14.6994 7.37165 14.8632 7.41572 14.9934 7.51479C15.1236 7.61387 15.2098 7.76005 15.2334 7.92194C15.4363 9.53542 15.0939 11.1704 14.2609 12.567C13.4278 13.9635 12.1517 15.0416 10.6356 15.6296C9.11952 16.2177 7.45033 16.2821 5.89342 15.8126C4.3365 15.3431 2.98121 14.3666 2.04299 13.0384C1.10478 11.7101 0.637492 10.1064 0.71541 8.48209C0.793329 6.85779 1.41198 5.30614 2.47303 4.07382C3.53407 2.84149 4.97661 1.99922 6.57132 1.68088C8.16603 1.36255 9.82139 1.58644 11.2743 2.31694L12.5326 1.05861C12.62 0.971341 12.7314 0.911941 12.8525 0.887913C12.9737 0.863885 13.1001 0.876307 13.2143 0.92361Z" fill="#637381"/>
</svg>
