<svg width="24" height="24" viewBox="0 0 24 24" fill="none" xmlns="http://www.w3.org/2000/svg">
<rect width="24" height="24" rx="12" fill="#303187"/>
<path fill-rule="evenodd" clip-rule="evenodd" d="M6.98397 8.88692C6.8323 7.52542 8.23405 6.52559 9.47247 7.11242L16.4398 10.4129C17.7745 11.0447 17.7745 12.944 16.4398 13.5758L9.47247 16.8768C8.23405 17.4637 6.83289 16.4638 6.98397 15.1023L7.26397 12.5777H11.9995C12.1542 12.5777 12.3026 12.5162 12.4119 12.4068C12.5213 12.2974 12.5828 12.149 12.5828 11.9943C12.5828 11.8396 12.5213 11.6913 12.4119 11.5819C12.3026 11.4725 12.1542 11.411 11.9995 11.411H7.26455L6.98455 8.88692H6.98397Z" fill="white"/>
</svg>
