<svg width="20" height="20" viewBox="0 0 20 20" fill="none" xmlns="http://www.w3.org/2000/svg">
<path opacity="0.5" d="M4.16648 5.20801C4.03868 5.20791 3.91392 5.247 3.80901 5.32C3.70411 5.393 3.62411 5.49641 3.57979 5.61628C3.53548 5.73616 3.52897 5.86674 3.56116 5.99042C3.59335 6.1141 3.66268 6.22495 3.75981 6.30801L9.59315 11.308C9.82648 11.508 10.1723 11.508 10.4065 11.308L16.2398 6.30801C16.3369 6.22495 16.4063 6.1141 16.4385 5.99042C16.4707 5.86674 16.4641 5.73616 16.4198 5.61628C16.3755 5.49641 16.2955 5.393 16.1906 5.32C16.0857 5.247 15.961 5.20791 15.8331 5.20801H4.16648Z" fill="#00B8D9"/>
<path fill-rule="evenodd" clip-rule="evenodd" d="M3.69096 8.75973C3.7444 8.69738 3.8096 8.64617 3.88284 8.60903C3.95609 8.57189 4.03593 8.54954 4.11781 8.54328C4.19969 8.53701 4.282 8.54694 4.36004 8.57249C4.43808 8.59805 4.51032 8.63874 4.57263 8.69223L9.99929 13.3431L15.426 8.69223C15.4882 8.63817 15.5605 8.59696 15.6387 8.57096C15.717 8.54496 15.7995 8.5347 15.8818 8.54075C15.964 8.54681 16.0442 8.56907 16.1177 8.60625C16.1913 8.64343 16.2568 8.69479 16.3104 8.75739C16.3641 8.81998 16.4048 8.89257 16.4303 8.97097C16.4557 9.04937 16.4654 9.13203 16.4588 9.2142C16.4522 9.29636 16.4294 9.37641 16.3917 9.44973C16.3541 9.52305 16.3023 9.58819 16.2393 9.6414L10.406 14.6414C10.2927 14.7385 10.1485 14.7918 9.99929 14.7918C9.85014 14.7918 9.70589 14.7385 9.59263 14.6414L3.75929 9.6414C3.69694 9.58796 3.64573 9.52275 3.60859 9.44951C3.57145 9.37627 3.54911 9.29643 3.54284 9.21455C3.53657 9.13267 3.5465 9.05036 3.57206 8.97232C3.59762 8.89428 3.6383 8.82204 3.69179 8.75973H3.69096Z" fill="#00B8D9"/>
</svg>
