<svg width="16" height="18" viewBox="0 0 16 18" fill="none" xmlns="http://www.w3.org/2000/svg">
<path d="M0.5 4.3132C0.5 3.90987 0.7875 3.58237 1.1425 3.58237H3.36333C3.80417 3.56904 4.19333 3.24987 4.34333 2.7782L4.36833 2.69487L4.46417 2.36904C4.5225 2.16904 4.57333 1.99404 4.645 1.8382C4.92667 1.22237 5.44833 0.79487 6.05083 0.685703C6.20417 0.658203 6.36583 0.658203 6.55083 0.658203H9.44917C9.635 0.658203 9.79667 0.658203 9.94917 0.685703C10.5517 0.79487 11.0742 1.22237 11.355 1.8382C11.4267 1.99404 11.4775 2.1682 11.5367 2.36904L11.6317 2.69487L11.6567 2.7782C11.8067 3.24987 12.2733 3.56987 12.715 3.58237H14.8567C15.2125 3.58237 15.5 3.90987 15.5 4.3132C15.5 4.71654 15.2125 5.04404 14.8575 5.04404H1.14167C0.7875 5.04404 0.5 4.71654 0.5 4.3132Z" fill="#FF5630"/>
<path fill-rule="evenodd" clip-rule="evenodd" d="M7.66333 17.3249H8.33667C10.6558 17.3249 11.815 17.3249 12.57 16.5865C13.3233 15.8482 13.4 14.6374 13.5542 12.2157L13.7767 8.7257C13.86 7.41154 13.9017 6.75404 13.5242 6.3382C13.1458 5.92154 12.5075 5.92154 11.23 5.92154H4.77C3.4925 5.92154 2.85333 5.92154 2.47583 6.3382C2.0975 6.75487 2.13917 7.41154 2.22333 8.7257L2.44583 12.2157C2.6 14.6374 2.67667 15.849 3.43083 16.5865C4.185 17.3249 5.34417 17.3249 7.66333 17.3249ZM6.53833 9.14904C6.505 8.78737 6.19833 8.52404 5.855 8.55987C5.51083 8.5957 5.26083 8.9182 5.295 9.27987L5.71167 13.6657C5.745 14.0274 6.05167 14.2907 6.395 14.2549C6.73917 14.219 6.98917 13.8965 6.955 13.5349L6.53833 9.14904ZM10.1458 8.55987C10.4892 8.5957 10.74 8.9182 10.705 9.27987L10.2883 13.6657C10.255 14.0274 9.9475 14.2907 9.605 14.2549C9.26083 14.219 9.01083 13.8965 9.045 13.5349L9.46167 9.14904C9.495 8.78737 9.80333 8.52404 10.1458 8.55987Z" fill="#FF5630"/>
</svg>
