<svg width="21" height="21" viewBox="0 0 21 21" fill="none" xmlns="http://www.w3.org/2000/svg">
<path d="M13.5698 0.557388V4.68739C13.5698 5.42745 14.2116 6.02739 15.0033 6.02739H19.464C19.6797 6.0231 19.8724 5.90044 19.9557 5.71443C20.0389 5.52843 19.9972 5.31401 19.8491 5.16739L14.5005 0.167388C14.3453 0.00460035 14.0952 -0.0454217 13.8824 0.0437678C13.6695 0.132957 13.5431 0.34079 13.5698 0.557388Z" fill="#919EAB"/>
<path d="M14.907 7.02739C13.6038 7.01641 12.5535 6.02569 12.5536 4.80739V0.497388C12.5536 0.24886 12.3381 0.0473877 12.0722 0.0473877H9.49418C7.36142 0.0473877 5.63248 1.66364 5.63248 3.65739V13.7274C5.63248 15.7211 7.36142 17.3374 9.49418 17.3374H16.1479C18.2824 17.3374 20.0144 15.7228 20.0203 13.7274V7.47739C20.0144 7.22725 19.7958 7.02733 19.5282 7.02739H14.907Z" fill="#919EAB"/>
<path d="M4.30602 14.1374C4.30602 16.547 6.39243 18.5019 8.97002 18.5074L13.88 18.5174C13.1762 19.7454 11.8082 20.5135 10.3179 20.5174H4.25254C2.01934 20.5174 0.208984 18.825 0.208984 16.7374V7.28739C0.208984 6.28487 0.635 5.32341 1.39331 4.61452C2.15163 3.90564 3.18012 3.50739 4.25254 3.50739H4.37021C4.33299 3.69554 4.31153 3.88612 4.30602 4.07739V14.1374Z" fill="#919EAB"/>
</svg>
