<svg width="17" height="17" viewBox="0 0 17 17" fill="none" xmlns="http://www.w3.org/2000/svg">
<path d="M10.466 8.84199C10.466 9.74406 9.73475 10.4753 8.83268 10.4753C7.93062 10.4753 7.19935 9.74406 7.19935 8.84199C7.19935 7.93993 7.93062 7.20866 8.83268 7.20866C9.73475 7.20866 10.466 7.93993 10.466 8.84199Z" fill="white"/>
<path fill-rule="evenodd" clip-rule="evenodd" d="M15.0214 6.27597C15.1801 6.66275 15.5563 6.91578 15.9743 6.91699C16.2484 6.91699 16.5112 7.02586 16.705 7.21965C16.8988 7.41344 17.0077 7.67627 17.0077 7.95033V9.73366C17.0077 10.3044 16.545 10.767 15.9743 10.767C15.5563 10.7682 15.1801 11.0212 15.0214 11.408C14.8627 11.7948 14.9526 12.2391 15.2493 12.5337C15.6474 12.9415 15.6474 13.5924 15.2493 14.0003L13.9993 15.2503C13.5915 15.6484 12.9406 15.6484 12.5327 15.2503C12.2381 14.9536 11.7938 14.8636 11.407 15.0224C11.0203 15.1811 10.7672 15.5572 10.766 15.9753C10.766 16.546 10.3034 17.0087 9.73268 17.0087H7.94935C7.37865 17.0087 6.91602 16.546 6.91602 15.9753C6.9148 15.5572 6.66177 15.1811 6.27499 15.0224C5.88821 14.8636 5.4439 14.9536 5.14935 15.2503C4.74147 15.6484 4.09056 15.6484 3.68268 15.2503L2.43268 14.0003C2.03466 13.5924 2.03466 12.9415 2.43268 12.5337C2.73047 12.238 2.81993 11.7917 2.65906 11.4042C2.4982 11.0166 2.11895 10.7648 1.69935 10.767C1.12865 10.767 0.666016 10.3044 0.666016 9.73366V7.95033C0.666016 7.37963 1.12865 6.91699 1.69935 6.91699C2.11743 6.91578 2.49358 6.66275 2.65231 6.27597C2.81104 5.88919 2.72105 5.44487 2.42435 5.15033C2.02632 4.74245 2.02632 4.09153 2.42435 3.68366L3.67435 2.43366C4.08222 2.03563 4.73314 2.03563 5.14102 2.43366C5.43663 2.73145 5.88298 2.82091 6.27052 2.66004C6.65806 2.49917 6.90985 2.11992 6.90768 1.70033C6.90768 1.12963 7.37032 0.666992 7.94102 0.666992H9.73268C10.0067 0.666992 10.2696 0.775861 10.4634 0.969648C10.6571 1.16344 10.766 1.42627 10.766 1.70033C10.7638 2.11992 11.0156 2.49917 11.4032 2.66004C11.7907 2.82091 12.2371 2.73145 12.5327 2.43366C12.9406 2.03563 13.5915 2.03563 13.9993 2.43366L15.2493 3.68366C15.6474 4.09153 15.6474 4.74245 15.2493 5.15033C14.9526 5.44487 14.8627 5.88919 15.0214 6.27597ZM5.94935 8.84199C5.94935 10.4344 7.24026 11.7253 8.83268 11.7253C10.4251 11.7253 11.716 10.4344 11.716 8.84199C11.716 7.24957 10.4251 5.95866 8.83268 5.95866C7.24026 5.95866 5.94935 7.24957 5.94935 8.84199Z" fill="white"/>
</svg>
