<svg width="20" height="20" viewBox="0 0 20 20" fill="none" xmlns="http://www.w3.org/2000/svg">
<path opacity="0.5" d="M4.16648 14.7914C4.03868 14.7915 3.91392 14.7524 3.80901 14.6794C3.70411 14.6064 3.62411 14.503 3.57979 14.3831C3.53548 14.2633 3.52897 14.1327 3.56116 14.009C3.59335 13.8853 3.66268 13.7745 3.75981 13.6914L9.59315 8.69141C9.70641 8.59436 9.85065 8.54102 9.99981 8.54102C10.149 8.54102 10.2932 8.59436 10.4065 8.69141L16.2398 13.6914C16.3369 13.7745 16.4063 13.8853 16.4385 14.009C16.4707 14.1327 16.4641 14.2633 16.4198 14.3831C16.3755 14.503 16.2955 14.6064 16.1906 14.6794C16.0857 14.7524 15.961 14.7915 15.8331 14.7914H4.16648Z" fill="#FF5630"/>
<path fill-rule="evenodd" clip-rule="evenodd" d="M3.6925 11.2402C3.74594 11.3026 3.81115 11.3538 3.88439 11.3909C3.95763 11.4281 4.03747 11.4504 4.11935 11.4567C4.20123 11.4629 4.28354 11.453 4.36158 11.4275C4.43962 11.4019 4.51186 11.3612 4.57417 11.3077L10.0008 6.65688L15.4275 11.3077C15.4893 11.3643 15.5618 11.4079 15.6408 11.4359C15.7198 11.4639 15.8036 11.4757 15.8872 11.4706C15.9708 11.4656 16.0526 11.4438 16.1277 11.4065C16.2027 11.3692 16.2695 11.3173 16.324 11.2537C16.3786 11.1901 16.4198 11.1161 16.4452 11.0363C16.4706 10.9565 16.4797 10.8723 16.4719 10.7889C16.4642 10.7055 16.4397 10.6245 16.4 10.5507C16.3603 10.4769 16.3062 10.4118 16.2408 10.3594L10.4075 5.35938C10.2942 5.26233 10.15 5.20898 10.0008 5.20898C9.85168 5.20898 9.70744 5.26233 9.59417 5.35938L3.76084 10.3594C3.63516 10.4673 3.55745 10.6207 3.5448 10.7858C3.53214 10.951 3.58557 11.1144 3.69334 11.2402H3.6925Z" fill="#FF5630"/>
</svg>
