<svg width="106" height="75" viewBox="0 0 106 75" fill="none" xmlns="http://www.w3.org/2000/svg">
<g opacity="0.2">
<mask id="mask0_413_40369" style="mask-type:alpha" maskUnits="userSpaceOnUse" x="0" y="0" width="106" height="75">
<path opacity="0.48" fill-rule="evenodd" clip-rule="evenodd" d="M0.601562 41.4126C0.601562 50.0496 3.87086 57.9199 9.25073 63.868C15.4226 70.694 24.3725 74.9856 34.3487 75C38.7087 75.0061 42.8776 74.1902 46.707 72.7007C48.687 71.9303 50.9031 72.0187 52.8207 72.9315C55.0702 74.0008 57.589 74.6004 60.2488 74.6004C61.3476 74.6004 62.4236 74.4973 63.4643 74.3017C66.4352 73.7454 69.1387 72.4288 71.359 70.5642C72.7543 69.3918 74.5414 68.8026 76.3677 68.8046H76.3988C82.4339 68.8046 88.0398 66.9854 92.694 63.868C96.8549 61.0846 100.253 57.2646 102.517 52.7795C104.49 48.871 105.602 44.4558 105.602 39.7829C105.602 23.7557 92.526 10.7611 76.3988 10.7611C74.7547 10.7611 73.144 10.8991 71.5725 11.1566C67.4117 4.46251 59.9605 0 51.4606 0C47.8719 0 44.4698 0.795351 41.4244 2.22109C38.5282 3.57257 35.9532 5.49297 33.8468 7.83333C26.6944 7.94666 20.0808 10.2687 14.6678 14.144C6.14719 20.2407 0.601562 30.1838 0.601562 41.4126Z" fill="url(#paint0_linear_413_40369)"/>
</mask>
<g mask="url(#mask0_413_40369)">
<rect x="0.601562" width="105" height="75" fill="#00A76F"/>
</g>
</g>
<path opacity="0.05" d="M64.6949 42.9565C64.2031 43.5133 63.672 43.504 63.3555 43.4255L63.3672 43.1371C63.3672 43.1371 64.6752 42.5678 64.6419 42.6874C64.6295 42.7323 64.6543 42.84 64.6949 42.9565Z" fill="#FF5630"/>
<path opacity="0.05" d="M68.2826 43.5872C67.4474 44.0469 66.9575 43.5081 66.8438 43.3555C66.9137 43.1805 67.019 42.8965 66.9974 42.8155C66.966 42.6953 68.2721 43.2646 68.2721 43.2646L68.2826 43.5872Z" fill="#FF5630"/>
<path opacity="0.05" d="M67.3867 39.0005C67.3867 39.0005 68.1813 38.5645 68.3546 38.7607C68.528 38.9569 67.3867 39.0005 67.3867 39.0005Z" fill="#FF5630"/>
<path opacity="0.05" d="M67.8655 39.2402C67.8655 39.2402 67.7347 39.3025 68.0231 39.3822C68.3116 39.462 67.8655 39.2402 67.8655 39.2402Z" fill="#FF5630"/>
<path opacity="0.05" d="M63.0633 38.0418C63.0364 38.0493 63.7245 38.484 64.3458 38.124C64.3431 38.124 63.2183 37.997 63.0633 38.0418Z" fill="#FF5630"/>
<path opacity="0.05" d="M64.3102 38.873C64.3102 38.873 64.1218 39.2256 63.736 39.2779C63.3501 39.3302 64.3102 38.873 64.3102 38.873Z" fill="#FF5630"/>
<path opacity="0.05" d="M66.8359 39.6377C66.8359 39.6377 67.7411 41.008 67.5678 41.3312C67.3945 41.6545 66.8359 39.6377 66.8359 39.6377Z" fill="#FF5630"/>
<path opacity="0.05" d="M65.0516 45.0869C65.0516 45.1635 65.0516 45.2352 65.0437 45.2943C65.0202 45.5715 64.3041 45.4669 64.3041 45.4669C63.65 45.5534 63.4146 45.2545 63.3368 44.9686C63.3123 44.8757 63.3002 44.7803 63.3008 44.6846C63.3004 44.6275 63.3043 44.5704 63.3126 44.5139V44.4572C63.4535 44.4167 63.6064 44.4465 63.7194 44.5363C64.0104 44.7612 64.3963 44.5886 64.3963 44.5886C64.3963 44.5886 64.6794 44.6111 64.7887 44.7007C64.8501 44.7512 64.9515 44.6297 65.0287 44.5139C65.0333 44.5886 65.0405 44.7238 65.045 44.8683C65.0503 44.9424 65.0516 45.0172 65.0516 45.0869Z" fill="#FF5630"/>
<path opacity="0.05" d="M63.9031 45.0702C63.9031 45.0702 63.7069 45.2533 63.3368 44.9705C63.3123 44.8777 63.3002 44.7823 63.3008 44.6865C63.4898 44.8236 63.8404 45.0702 63.9031 45.0702Z" fill="#FF5630"/>
<path opacity="0.05" d="M65.0485 45.0864C65.0162 45.1101 64.9751 45.1201 64.9349 45.114C64.8946 45.1078 64.8588 45.0862 64.8359 45.054C64.9122 44.9988 64.9824 44.9361 65.0452 44.8672C65.0472 44.9419 65.0485 45.0167 65.0485 45.0864Z" fill="#FF5630"/>
<path opacity="0.05" d="M66.5861 45.2154C66.5861 45.2926 66.5861 45.3643 66.5933 45.4228C66.6168 45.7006 67.333 45.5954 67.333 45.5954C67.987 45.6826 68.2224 45.3836 68.3002 45.0971C68.3388 44.9484 68.347 44.794 68.3244 44.6424V44.5857C68.1833 44.5459 68.0305 44.5756 67.917 44.6648C67.626 44.8897 67.2407 44.7171 67.2407 44.7171C67.2407 44.7171 66.9576 44.7402 66.8483 44.8299C66.7869 44.8803 66.6855 44.7589 66.609 44.643C66.6044 44.7177 66.5966 44.8529 66.592 44.9974C66.5867 45.0703 66.5854 45.145 66.5861 45.2154Z" fill="#FF5630"/>
<path opacity="0.05" d="M67.7344 45.1975C67.7344 45.1975 67.9306 45.3806 68.3001 45.0979C68.3248 45.0052 68.3371 44.91 68.3367 44.8145C68.147 44.9509 67.7965 45.1975 67.7344 45.1975Z" fill="#FF5630"/>
<path opacity="0.05" d="M66.5861 45.2153C66.6183 45.239 66.6593 45.249 66.6994 45.2428C66.7396 45.2367 66.7752 45.215 66.798 45.183C66.7216 45.1277 66.6515 45.0651 66.5887 44.9961C66.5868 45.0702 66.5855 45.145 66.5861 45.2153Z" fill="#FF5630"/>
<g opacity="0.05">
<path d="M70.5166 22.1396C70.5303 22.111 70.5434 22.0823 70.5558 22.0543C70.5683 22.0263 70.5728 22.0107 70.58 21.9883C70.556 22.0376 70.5348 22.0881 70.5166 22.1396Z" fill="#FF5630"/>
</g>
<path fill-rule="evenodd" clip-rule="evenodd" d="M35.0747 58.2214C34.9162 58.0397 34.8436 57.8037 34.874 57.5693L37.7607 35.0735L38.0001 33.2049C38.0556 32.7749 38.4373 32.4509 38.8921 32.4475L47.3477 32.394C47.591 32.3925 47.8233 32.2979 47.9924 32.1313C48.1615 31.9648 48.253 31.7404 48.2463 31.5089L48.2431 31.4235C48.2347 31.19 48.3263 30.9632 48.4968 30.7952C48.6673 30.6272 48.9022 30.5323 49.1475 30.5322H58.0328C58.5316 30.5322 58.9362 30.9168 58.9373 31.3918C58.9373 31.4305 58.9346 31.4692 58.9295 31.5076C58.8954 31.7501 58.9712 31.9949 59.1379 32.181C59.3045 32.367 59.5464 32.4769 59.8032 32.483L68.3366 32.6904C68.5992 32.6966 68.8459 32.8112 69.0127 33.0044C69.1794 33.1977 69.2497 33.4505 69.2051 33.697L64.9391 57.4279L64.8586 57.8764C64.8388 57.9909 64.7942 58.1003 64.7278 58.1978L35.0747 58.2214Z" fill="#004B50"/>
<rect width="4.92096" height="16.4166" transform="matrix(0.835382 0.549669 -0.587195 0.809445 60.8281 25.7656)" fill="white"/>
<rect width="3.47366" height="3.41515" transform="matrix(0.833834 0.552015 -0.589547 0.807734 61.1211 26.3955)" fill="#FFAB00"/>
<rect opacity="0.5" width="3.47881" height="3.41931" transform="matrix(0.835383 0.549669 -0.587195 0.809445 58.8555 29.7197)" fill="#FFAB00"/>
<rect opacity="0.3" width="3.47881" height="3.41931" transform="matrix(0.835382 0.549669 -0.587195 0.809445 56.4297 33.0615)" fill="#FFAB00"/>
<rect width="4.97827" height="16.1551" transform="matrix(0.963384 0.268125 -0.293344 0.956007 55.0195 24.9336)" fill="white"/>
<rect width="3.51932" height="3.3776" transform="matrix(0.963384 0.268125 -0.293344 0.956007 55.6484 25.3789)" fill="#FF5630"/>
<rect opacity="0.5" width="3.51932" height="3.3776" transform="matrix(0.963384 0.268125 -0.293344 0.956007 54.4531 29.2773)" fill="#FF5630"/>
<rect opacity="0.3" width="3.51932" height="3.3776" transform="matrix(0.963384 0.268125 -0.293344 0.956007 53.2539 33.1758)" fill="#FF5630"/>
<rect width="4.99508" height="16.0956" transform="matrix(0.997077 0.0764028 -0.0841811 0.99645 51.6211 25.1768)" fill="white"/>
<rect width="3.53121" height="3.36517" transform="matrix(0.997077 0.0764028 -0.0841811 0.99645 52.332 25.4922)" fill="#00B8D9"/>
<rect opacity="0.5" width="3.53121" height="3.36517" transform="matrix(0.997077 0.0764028 -0.0841811 0.99645 51.9883 29.54)" fill="#00B8D9"/>
<rect opacity="0.3" width="3.53121" height="3.36517" transform="matrix(0.997077 0.0764028 -0.0841811 0.99645 51.6445 33.5889)" fill="#00B8D9"/>
<rect width="4.99609" height="16.092" transform="matrix(0.999059 -0.0433731 0.0478091 0.998856 49.3789 25.8223)" fill="white"/>
<rect width="3.53192" height="3.36442" transform="matrix(0.999059 -0.0433731 0.0478091 0.998856 50.125 26.0488)" fill="#00A76F"/>
<rect opacity="0.5" width="3.53627" height="3.36869" transform="matrix(0.998868 -0.0475652 0.0524278 0.998625 50.457 29.9775)" fill="#00A76F"/>
<rect opacity="0.3" width="3.53192" height="3.36442" transform="matrix(0.999059 -0.0433731 0.0478091 0.998856 50.5117 34.1631)" fill="#00A76F"/>
<path d="M51.5003 47.0265L47.0609 48.6621L40.5725 51.0508C40.3273 50.6148 39.9663 50.0256 39.5196 49.3224C37.9827 46.8969 35.4399 43.1243 33.1758 39.8088C30.6252 36.0717 28.4297 32.9181 28.4297 32.9181L30.0189 32.4821L43.0008 28.8926L51.5003 47.0265Z" fill="#F4F6F8"/>
<path opacity="0.1" d="M51.5002 47.0265L47.0609 48.6621C44.5809 49.1542 42.0502 49.3757 39.5176 49.3224C37.9807 46.8969 35.4379 43.1243 33.1738 39.8088L30.0195 32.4796L43.0008 28.8926L51.5002 47.0265Z" fill="black"/>
<path d="M54.8038 46.0081C54.8038 46.0081 47.9073 49.8935 37.6107 49.0147L29.4023 29.9552L33.3362 29.3111L46.9355 27.0869L54.6527 45.6375L54.8038 46.0081Z" fill="#00A76F"/>
<path opacity="0.1" d="M54.6499 45.6404C53.026 45.7164 51.147 45.709 49.257 45.4941C47.2112 45.2649 45.1538 44.7927 43.3899 43.927C41.9151 43.2038 40.6542 42.4172 39.5548 41.4735C36.6949 39.0238 34.9252 35.5196 33.3359 29.3141L46.9353 27.0898L54.6499 45.6404Z" fill="#FF5630"/>
<path d="M59.7101 44.5752C59.7101 44.5752 54.6266 45.5232 49.4521 44.9396C47.4064 44.7104 45.3489 44.2383 43.5851 43.3725C42.1103 42.6494 40.85 41.8627 39.75 40.919C36.2105 37.8863 34.3414 33.2386 32.4141 23.8527C32.4141 23.8527 40.8651 25.7954 49.2219 21.54C49.2193 21.5432 52.0361 38.2844 59.7101 44.5752Z" fill="white"/>
<g opacity="0.3">
<path d="M36.7852 27.2983C36.7852 27.2983 43.6574 26.9284 45.5762 25.5176L45.8673 26.4083C45.8673 26.4083 41.3265 28.3161 36.7852 28.3391V27.2983Z" fill="#00A76F"/>
<path d="M36.7852 31.6957C36.7852 31.6957 43.439 31.3488 48.4663 29.0361L48.6363 29.4061C48.6363 29.4061 44.6469 31.6241 36.7852 32.2046V31.6957Z" fill="#00A76F"/>
<path d="M37.3209 33.4092C37.3209 33.4092 43.9747 33.0623 49.0014 30.7496L49.1714 31.1196C49.1714 31.1196 45.182 33.337 37.3209 33.9181V33.4092Z" fill="#00A76F"/>
<path d="M37.8558 35.1252C37.8558 35.1252 44.5096 34.7782 49.537 32.4656L49.7063 32.8355C49.7063 32.8355 45.7169 35.0535 37.8558 35.6341V35.1252Z" fill="#00A76F"/>
<path d="M38.3914 36.8412C38.3914 36.8412 45.0452 36.4942 50.0719 34.1816L50.2419 34.5515C50.2419 34.5515 46.2525 36.7695 38.3914 37.3501V36.8412Z" fill="#00A76F"/>
<path d="M38.9263 38.5577C38.9263 38.5577 45.5801 38.2108 50.6074 35.8981L50.7768 36.2681C50.7768 36.2681 46.7874 38.4855 38.9263 39.0666V38.5577Z" fill="#00A76F"/>
</g>
<path d="M85.7119 59.8637C85.7119 59.8637 82.9468 59.7048 83.2725 61.5504C83.2725 61.5504 83.2071 61.8761 83.5184 62.0243C83.5184 62.0243 83.523 61.8873 83.8016 61.934C83.901 61.95 84.0019 61.9546 84.1024 61.9477C84.238 61.9391 84.3669 61.8883 84.4693 61.8032C84.4693 61.8032 85.2469 61.4974 85.5491 60.2878C85.5491 60.2878 85.7728 60.0237 85.7636 59.9558L85.2973 60.1427C85.2973 60.1427 85.4569 60.4635 85.3313 60.7294C85.3313 60.7294 85.3163 60.1545 85.2267 60.1689C85.2084 60.1689 84.984 60.2797 84.984 60.2797C84.984 60.2797 85.2581 60.8403 85.0494 61.2439C85.0494 61.2439 85.1279 60.5556 84.8964 60.3202L84.5694 60.5027C84.5694 60.5027 84.8899 61.0795 84.6727 61.5504C84.6727 61.5504 84.7283 60.8285 84.5001 60.5469L84.2025 60.768C84.2025 60.768 84.504 61.3367 84.3202 61.7272C84.3202 61.7272 84.296 60.8864 84.1378 60.8229C84.1378 60.8229 83.8762 61.0415 83.8382 61.1343C83.8382 61.1343 84.0442 61.5466 83.9161 61.7646C83.9161 61.7646 83.8376 61.204 83.7735 61.204C83.7735 61.204 83.5119 61.5778 83.487 61.8269C83.487 61.8269 83.4981 61.4482 83.7107 61.1661C83.561 61.1933 83.4228 61.2615 83.3131 61.3623C83.3131 61.3623 83.3536 61.0994 83.7748 61.077C83.7748 61.077 83.9893 60.7954 84.0462 60.778C84.0462 60.778 83.6276 60.745 83.3739 60.8521C83.3739 60.8521 83.5976 60.603 84.1234 60.717L84.417 60.489C84.417 60.489 83.8657 60.4168 83.6322 60.4965C83.6322 60.4965 83.901 60.2772 84.4962 60.4342L84.816 60.2523C84.816 60.2523 84.3464 60.1558 84.0665 60.19C84.0665 60.19 84.3614 60.0381 84.9101 60.2025L85.1384 60.1047C85.1384 60.1047 84.7944 60.0424 84.6937 60.03C84.5929 60.0175 84.5871 59.9938 84.5871 59.9938C84.8052 59.9588 85.0292 59.9825 85.2339 60.0623C85.2339 60.0623 85.7198 59.8929 85.7119 59.8637Z" fill="#00A76F"/>
<path d="M86.9998 53.7715C86.9998 53.7715 85.4413 53.6818 85.6264 54.7226C85.6068 54.8307 85.6625 54.9385 85.7643 54.9898C85.7643 54.9898 85.7676 54.9125 85.9246 54.9387C85.9805 54.9475 86.0374 54.95 86.094 54.9462C86.1703 54.9415 86.2429 54.913 86.3006 54.8652C86.3006 54.8652 86.7388 54.6927 86.9095 54.0106C86.9095 54.0106 87.0357 53.8618 87.0305 53.8238L86.7689 53.9303C86.7689 53.9303 86.8585 54.1116 86.7879 54.2617C86.7879 54.2617 86.7794 53.9372 86.729 53.9446C86.7185 53.9446 86.5923 54.0069 86.5923 54.0069C86.5923 54.0069 86.7467 54.3183 86.6302 54.5507C86.6302 54.5507 86.6747 54.1626 86.5439 54.0293L86.3588 54.1327C86.3588 54.1327 86.5393 54.4579 86.417 54.7232C86.417 54.7232 86.4484 54.3158 86.3196 54.1576L86.1522 54.2822C86.1522 54.2822 86.3216 54.603 86.2176 54.8229C86.2176 54.8229 86.2038 54.3489 86.1149 54.3134C86.0514 54.3647 85.9945 54.423 85.9455 54.4871C85.9455 54.4871 86.0619 54.7201 85.99 54.8428C85.99 54.8428 85.9455 54.527 85.9095 54.5258C85.9095 54.5258 85.763 54.7344 85.748 54.8777C85.7551 54.7447 85.7986 54.6159 85.8742 54.504C85.7896 54.5191 85.7116 54.5577 85.6499 54.6148C85.6499 54.6148 85.6728 54.4666 85.9115 54.4541C85.9115 54.4541 86.0325 54.2953 86.0645 54.2853C86.0645 54.2853 85.8284 54.2666 85.6852 54.3271C85.6852 54.3271 85.8114 54.1875 86.1077 54.2511L86.2738 54.1221C86.2738 54.1221 85.9625 54.0817 85.8311 54.1265C85.8311 54.1265 85.9828 54.0019 86.3183 54.0929L86.4988 53.9901C86.3599 53.9611 86.2177 53.9496 86.0757 53.9558C86.0757 53.9558 86.2424 53.8699 86.5511 53.9627L86.6819 53.9079C86.6819 53.9079 86.4857 53.8711 86.4308 53.8655C86.3758 53.8599 86.3706 53.845 86.3706 53.845C86.4937 53.8255 86.62 53.8388 86.7355 53.8836C86.7355 53.8836 87.005 53.7877 86.9998 53.7715Z" fill="#00A76F"/>
<path d="M77.7992 54.6746C77.7992 54.6746 75.917 54.5662 76.1394 55.8225C76.1157 55.9531 76.183 56.0834 76.3061 56.1452C76.3061 56.1452 76.3061 56.0517 76.5023 56.0829C76.5699 56.0938 76.6386 56.0969 76.707 56.0922C76.7994 56.0864 76.8871 56.0518 76.9569 55.9938C76.9569 55.9938 77.4859 55.7858 77.692 54.9623C77.692 54.9623 77.8443 54.783 77.8378 54.7363L77.5167 54.8658C77.5167 54.8658 77.6252 55.0838 77.5396 55.2651C77.5396 55.2651 77.5291 54.8739 77.4683 54.8826C77.4559 54.8826 77.3035 54.9586 77.3035 54.9586C77.3035 54.9586 77.4899 55.3386 77.3493 55.6151C77.3493 55.6151 77.4029 55.1467 77.2453 54.986L77.0216 55.1106C77.0216 55.1106 77.2394 55.5036 77.0916 55.8238C77.0916 55.8238 77.1295 55.3323 76.9745 55.1386L76.7718 55.2893C76.7718 55.2893 76.9771 55.6761 76.8516 55.9421C76.8516 55.9421 76.8359 55.3697 76.728 55.3267C76.728 55.3267 76.5507 55.4756 76.5239 55.5366C76.5239 55.5366 76.6639 55.8175 76.5769 55.9658C76.5769 55.9658 76.5233 55.5846 76.4794 55.5827C76.4794 55.5827 76.3035 55.8356 76.2832 56.0081C76.292 55.8481 76.3446 55.6931 76.4356 55.5584C76.3338 55.5769 76.2398 55.6235 76.1655 55.6923C76.1655 55.6923 76.193 55.5136 76.4794 55.498C76.4794 55.498 76.6253 55.3062 76.6645 55.295C76.6645 55.295 76.3794 55.2719 76.2067 55.3448C76.2067 55.3448 76.3584 55.1766 76.7162 55.2532L76.9163 55.0975C76.9163 55.0975 76.5416 55.0489 76.382 55.1025C76.382 55.1025 76.5651 54.9536 76.9706 55.0626L77.1884 54.9381C77.1884 54.9381 76.8686 54.8727 76.6776 54.8963C76.6776 54.8963 76.879 54.7929 77.2518 54.905L77.4075 54.8384C77.4075 54.8384 77.1733 54.7948 77.1047 54.7879C77.036 54.7811 77.0327 54.763 77.0327 54.763C77.1811 54.7391 77.3335 54.755 77.4729 54.8091C77.4729 54.8091 77.8051 54.6939 77.7992 54.6746Z" fill="#00A76F"/>
<rect width="10.6823" height="19.8856" rx="4.73723" transform="matrix(0.323063 -0.946377 0.955257 0.295777 61.4414 26.0449)" fill="white"/>
<g opacity="0.24">
<path d="M69.0667 21.5636C69.0667 22.6424 68.1485 23.5169 67.0158 23.5169C65.8831 23.5169 64.9648 22.6424 64.9648 21.5636C64.9648 20.4849 65.8831 19.6104 67.0158 19.6104C68.1485 19.6104 69.0667 20.4849 69.0667 21.5636Z" fill="#00A76F"/>
<path d="M71.9229 21.212L72.0966 20.7032L80.5944 23.3344L80.4207 23.8432L71.9229 21.212Z" fill="#00A76F"/>
<path d="M71.48 22.5093L71.6537 22.0004L75.9825 23.3408L75.8088 23.8496L71.48 22.5093Z" fill="#00A76F"/>
<path d="M71.0363 23.8074L71.21 23.2985L78.2114 25.4664L78.0377 25.9752L71.0363 23.8074Z" fill="#00A76F"/>
<path d="M70.5936 25.1049L70.7673 24.5961L79.2651 27.2273L79.0914 27.7361L70.5936 25.1049Z" fill="#00A76F"/>
</g>
<rect opacity="0.5" width="1.03962" height="2.46177" transform="matrix(0.323063 -0.946377 0.955257 0.295777 75.9375 29.3574)" fill="#00A76F"/>
<rect width="10.6351" height="16.8947" rx="4" transform="matrix(0.559473 -0.828849 0.852851 0.522154 59.6992 44.5049)" fill="white"/>
<path d="M68.6562 47.327L72.3227 41.8311L72.8896 42.1741L69.2232 47.67L68.6562 47.327Z" fill="#F4F6F8"/>
<path d="M69.8673 48.0592L73.5337 42.5633L74.1006 42.9063L70.4342 48.4022L69.8673 48.0592Z" fill="#F4F6F8"/>
<path d="M61.8359 43.8893L63.5054 41.3869L64.1236 41.761L62.4542 44.2634L61.8359 43.8893Z" fill="#C4CDD5"/>
<path d="M63.812 44.3963L67.4784 38.9004L68.0453 39.2434L64.3789 44.7393L63.812 44.3963Z" fill="#C4CDD5"/>
<path d="M65.023 45.1284L68.6894 39.6325L69.2563 39.9755L65.5899 45.4714L65.023 45.1284Z" fill="#C4CDD5"/>
<path d="M66.2338 45.8617L69.9002 40.3658L70.4671 40.7089L66.8007 46.2048L66.2338 45.8617Z" fill="#C4CDD5"/>
<path d="M67.4867 46.9242L71.1786 41.4547L71.7428 41.8001L68.0509 47.2696L67.4867 46.9242Z" fill="#C4CDD5"/>
<path d="M74.9507 44.9371L75.9001 43.5139L77.3944 44.4181L76.445 45.8413L74.9507 44.9371Z" fill="#C4CDD5"/>
<path d="M59.5042 35.1582L49.4927 35.261C49.118 35.2648 48.8162 35.555 48.8158 35.9119V36.6998C48.8156 37.0532 48.5197 37.3419 48.1488 37.3507L40.9247 37.5158C40.6096 37.5233 40.33 37.3247 40.2478 37.0349L39.9083 35.8471C39.8269 35.5606 39.5523 35.3628 39.2406 35.3663L29.5908 35.4653C29.3907 35.4672 29.2015 35.5525 29.0732 35.6987C28.9448 35.8449 28.8902 36.0373 28.9237 36.2252L32.8059 57.9854C32.8615 58.2977 33.1449 58.5266 33.4775 58.5279L63.9632 58.6525C64.1675 58.6531 64.3614 58.5668 64.4919 58.4171C64.6223 58.2674 64.6757 58.07 64.6375 57.8789L60.1824 35.687C60.1204 35.3777 59.8348 35.1551 59.5042 35.1582V35.1582Z" fill="url(#paint1_linear_413_40369)"/>
<g opacity="0.2">
<path d="M85.7628 62.1844C85.7628 62.3585 84.8867 62.4996 83.806 62.4996C82.7253 62.4996 81.8492 62.3585 81.8492 62.1844C81.8492 62.0103 82.7253 61.8692 83.806 61.8692C84.8867 61.8692 85.7628 62.0103 85.7628 62.1844Z" fill="#00A76F"/>
<path d="M87.029 55.0794C87.029 55.1775 86.5351 55.257 85.9257 55.257C85.3164 55.257 84.8224 55.1775 84.8224 55.0794C84.8224 54.9814 85.3164 54.9019 85.9257 54.9019C86.5351 54.9019 87.029 54.9814 87.029 55.0794Z" fill="#00A76F"/>
<path d="M77.8339 56.2542C77.8339 56.3725 77.2374 56.4685 76.5017 56.4685C75.7659 56.4685 75.1695 56.3725 75.1695 56.2542C75.1695 56.1359 75.7659 56.0399 76.5017 56.0399C77.2374 56.0399 77.8339 56.1359 77.8339 56.2542Z" fill="#00A76F"/>
<path d="M27.823 53.8879C27.823 53.9646 27.3483 54.0268 26.7628 54.0268C26.1773 54.0268 25.7027 53.9646 25.7027 53.8879C25.7027 53.8112 26.1773 53.749 26.7628 53.749C27.3483 53.749 27.823 53.8112 27.823 53.8879Z" fill="#00A76F"/>
<path d="M23.7622 54.2797C23.7622 54.3564 23.2876 54.4186 22.7021 54.4186C22.1166 54.4186 21.6419 54.3564 21.6419 54.2797C21.6419 54.203 22.1166 54.1408 22.7021 54.1408C23.2876 54.1408 23.7622 54.203 23.7622 54.2797Z" fill="#00A76F"/>
<path d="M25.0808 55.3965C25.0808 55.4509 24.7435 55.4949 24.3274 55.4949C23.9113 55.4949 23.5739 55.4509 23.5739 55.3965C23.5739 55.3422 23.9113 55.2981 24.3274 55.2981C24.7435 55.2981 25.0808 55.3422 25.0808 55.3965Z" fill="#00A76F"/>
<path d="M20.8662 55.2981C20.8662 55.3524 20.5289 55.3965 20.1128 55.3965C19.6967 55.3965 19.3594 55.3524 19.3594 55.2981C19.3594 55.2437 19.6967 55.1997 20.1128 55.1997C20.5289 55.1997 20.8662 55.2437 20.8662 55.2981Z" fill="#00A76F"/>
</g>
<path d="M19.6972 55.0744C19.6498 55.0375 19.6153 54.9878 19.5984 54.9318C19.5817 54.8738 19.6109 54.8128 19.6677 54.7866C19.7331 54.7636 19.7985 54.8053 19.8509 54.8489C19.9032 54.8925 19.9627 54.9386 20.0281 54.928C19.9575 54.8671 19.9257 54.7753 19.9444 54.6864C19.9471 54.6683 19.955 54.6512 19.9673 54.6372C20.0026 54.601 20.0667 54.6166 20.1092 54.6453C20.24 54.7349 20.2812 54.9087 20.2818 55.0657C20.2884 55.0081 20.2884 54.9501 20.2818 54.8925C20.2783 54.8336 20.3058 54.7769 20.3551 54.7412C20.3869 54.7246 20.4228 54.7165 20.4591 54.7175C20.5199 54.7092 20.5815 54.726 20.6285 54.7636C20.6743 54.823 20.6716 54.9045 20.6219 54.961C20.5718 55.0146 20.5126 55.0596 20.4467 55.0943C20.3966 55.123 20.354 55.1619 20.3217 55.2083C20.3178 55.2146 20.3147 55.2213 20.3126 55.2282H19.932C19.8468 55.1873 19.7678 55.1356 19.6972 55.0744Z" fill="#00A76F"/>
<path d="M26.332 53.7153C26.2845 53.6788 26.25 53.6292 26.2332 53.5733C26.2164 53.5155 26.2453 53.4545 26.3019 53.4282C26.3673 53.4051 26.4327 53.4469 26.485 53.4905C26.5373 53.5341 26.5962 53.5814 26.6635 53.5721C26.5929 53.5114 26.5609 53.4199 26.5792 53.331C26.5821 53.3129 26.5902 53.2958 26.6027 53.2818C26.638 53.2457 26.7021 53.2613 26.7446 53.2893C26.8787 53.3796 26.9166 53.5534 26.9173 53.7103C26.9238 53.6526 26.9238 53.5943 26.9173 53.5366C26.9114 53.4784 26.9358 53.4211 26.9827 53.3833C27.0147 53.3672 27.0505 53.3593 27.0867 53.3603C27.1473 53.3522 27.2088 53.3687 27.2561 53.4058C27.302 53.4654 27.299 53.5473 27.2489 53.6038C27.1991 53.6575 27.1401 53.7026 27.0742 53.7371C27.0242 53.7655 26.9815 53.8043 26.9493 53.8505C26.9455 53.857 26.9424 53.8639 26.9402 53.871H26.568C26.4822 53.8297 26.4028 53.7773 26.332 53.7153Z" fill="#00A76F"/>
<path d="M24.1209 55.0744C24.0735 55.0374 24.0389 54.9877 24.0215 54.9318C24.0048 54.8738 24.034 54.8127 24.0908 54.7866C24.1562 54.7636 24.2216 54.8053 24.2739 54.8489C24.3262 54.8925 24.3845 54.9399 24.4525 54.9311C24.382 54.8701 24.35 54.7785 24.3681 54.6895C24.371 54.6713 24.3792 54.6543 24.3916 54.6403C24.427 54.6041 24.4911 54.6197 24.5336 54.6484C24.6676 54.738 24.7049 54.9118 24.7062 55.0688C24.7128 55.0112 24.7128 54.9532 24.7062 54.8956C24.7011 54.8369 24.7268 54.7795 24.7749 54.7424C24.8067 54.7258 24.8426 54.7176 24.8789 54.7187C24.9396 54.7105 25.0012 54.7273 25.0483 54.7648C25.0941 54.8243 25.0912 54.906 25.0411 54.9623C24.9912 55.0158 24.9322 55.0609 24.8665 55.0956C24.8164 55.1242 24.7738 55.1632 24.7415 55.2095C24.7376 55.2158 24.7345 55.2225 24.7324 55.2295H24.3531C24.2688 55.1879 24.1907 55.1357 24.1209 55.0744Z" fill="#00A76F"/>
<g opacity="0.08">
<path d="M20.4933 18.1257C20.4933 18.8697 19.8599 19.4729 19.0787 19.4729C18.2974 19.4729 17.6641 18.8697 17.6641 18.1257C17.6641 17.3816 18.2974 16.7784 19.0787 16.7784C19.8599 16.7784 20.4933 17.3816 20.4933 18.1257Z" fill="#00A76F"/>
<path d="M88.5153 28.8918C88.5153 29.6358 87.882 30.239 87.1007 30.239C86.3195 30.239 85.6861 29.6358 85.6861 28.8918C85.6861 28.1477 86.3195 27.5445 87.1007 27.5445C87.882 27.5445 88.5153 28.1477 88.5153 28.8918Z" fill="#00A76F"/>
<path d="M63.0865 13.8472C63.0865 14.5913 62.4532 15.1945 61.6719 15.1945C60.8906 15.1945 60.2573 14.5913 60.2573 13.8472C60.2573 13.1032 60.8906 12.5 61.6719 12.5C62.4532 12.5 63.0865 13.1032 63.0865 13.8472Z" fill="#00A76F"/>
<path d="M24.2786 25.5582C24.2786 26.8052 23.2172 27.8161 21.9079 27.8161C20.5985 27.8161 19.5371 26.8052 19.5371 25.5582C19.5371 24.3113 20.5985 23.3004 21.9079 23.3004C23.2172 23.3004 24.2786 24.3113 24.2786 25.5582Z" fill="#00A76F"/>
</g>
<path fill-rule="evenodd" clip-rule="evenodd" d="M45.6705 43.7314C43.926 43.7314 42.5117 45.0784 42.5117 46.7399C42.5117 48.4014 43.926 49.7483 45.6705 49.7483C47.4151 49.7483 48.8294 48.4014 48.8294 46.7399C48.8294 45.0784 47.4151 43.7314 45.6705 43.7314V43.7314Z" fill="#007867"/>
<path opacity="0.72" fill-rule="evenodd" clip-rule="evenodd" d="M45.6703 44.0811C47.2119 44.0811 48.4617 45.2713 48.4617 46.7395C48.4617 48.2077 47.2119 49.398 45.6703 49.398C44.1286 49.398 42.8789 48.2077 42.8789 46.7395C42.8803 45.2718 44.1292 44.0823 45.6703 44.0811" fill="#00A76F"/>
<path fill-rule="evenodd" clip-rule="evenodd" d="M44.3647 46.9594L44.2119 46.8174C44.1789 46.7887 44.1602 46.7485 44.1602 46.7065C44.1602 46.6645 44.1789 46.6243 44.2119 46.5956L45.5521 45.3489C45.583 45.3182 45.6262 45.3008 45.6714 45.3008C45.7167 45.3008 45.7599 45.3182 45.7908 45.3489L47.131 46.5945C47.1634 46.6235 47.1816 46.6636 47.1816 46.7054C47.1816 46.7472 47.1634 46.7873 47.131 46.8163L46.9782 46.9583C46.947 46.9884 46.9039 47.0054 46.8589 47.0054C46.8139 47.0054 46.7708 46.9884 46.7395 46.9583L45.9471 46.1819V48.0242C45.9474 48.065 45.9302 48.1042 45.8993 48.1332C45.8684 48.1621 45.8263 48.1784 45.7824 48.1784H45.5616C45.47 48.1784 45.3958 48.1094 45.3958 48.0242V46.1841L44.6033 46.9605C44.5719 46.9905 44.5287 47.0073 44.4837 47.007C44.4387 47.0068 44.3958 46.9896 44.3647 46.9594V46.9594Z" fill="#007867"/>
<path d="M22.6781 54.25C22.6781 54.25 24.1647 49.6085 22.4453 47.7492C21.1589 46.3584 19.6985 46.5247 19.0445 46.6966C18.7023 46.7837 18.4173 47.0093 18.2649 47.3138C18.036 47.7835 18.0772 48.5459 19.6913 49.4359C22.393 50.9258 22.5611 52.9694 22.5611 52.9694L22.6781 54.25Z" fill="#00A76F"/>
<path d="M22.7385 54.2867C22.7385 54.2867 20.9969 50.9133 20.5188 50.9856C20.2919 51.0211 20.1873 51.2347 20.1395 51.4477C20.0808 51.7241 20.114 52.011 20.2344 52.2686C20.4816 52.8105 21.1454 53.8351 22.7385 54.2867Z" fill="#00A76F"/>
<path d="M22.6867 54.2867C22.6867 54.2867 24.4276 50.9133 24.9057 50.9856C25.1333 51.0211 25.2379 51.2347 25.285 51.4477C25.3437 51.7241 25.3106 52.011 25.1902 52.2686C24.943 52.8105 24.2785 53.8351 22.6867 54.2867Z" fill="#00A76F"/>
<path fill-rule="evenodd" clip-rule="evenodd" d="M19.2252 47.3393C19.2342 47.3118 19.2649 47.2965 19.2937 47.3051L19.2774 47.3548C19.2937 47.3051 19.2937 47.3051 19.2937 47.3051L19.294 47.3052L19.2948 47.3055L19.2974 47.3063L19.3073 47.3094C19.3159 47.3121 19.3286 47.3163 19.3449 47.3219C19.3775 47.3331 19.4249 47.3502 19.4847 47.3739C19.6043 47.4212 19.7735 47.495 19.9733 47.601C20.3728 47.813 20.8949 48.1545 21.3862 48.6723C22.3705 49.7098 23.2253 51.4497 22.7321 54.2585C22.7271 54.2868 22.6989 54.306 22.6691 54.3013C22.6394 54.2965 22.6192 54.2697 22.6242 54.2413C23.112 51.463 22.2664 49.7554 21.3051 48.7421C20.8235 48.2346 20.3115 47.8998 19.9201 47.692C19.7244 47.5881 19.5589 47.516 19.4427 47.47C19.3846 47.447 19.3388 47.4306 19.3078 47.4199C19.2922 47.4145 19.2804 47.4106 19.2725 47.4081L19.2636 47.4053L19.2615 47.4047L19.2611 47.4046C19.2323 47.3959 19.2161 47.3667 19.2252 47.3393Z" fill="#007867"/>
<path fill-rule="evenodd" clip-rule="evenodd" d="M21.8825 47.7935C21.8993 47.8173 21.8927 47.8497 21.8677 47.8658L21.8676 47.8659L21.8666 47.8665L21.8622 47.8695C21.8583 47.8722 21.8523 47.8763 21.8448 47.8818C21.8296 47.8928 21.8078 47.9094 21.7822 47.9312C21.7307 47.9747 21.6643 48.0385 21.6039 48.1193C21.4831 48.2809 21.3887 48.5064 21.4779 48.7768C21.487 48.8042 21.471 48.8335 21.4422 48.8421C21.4133 48.8507 21.3826 48.8355 21.3736 48.808C21.2706 48.496 21.3819 48.2366 21.5148 48.0589C21.5812 47.9701 21.6537 47.9006 21.7095 47.8533C21.7374 47.8297 21.7613 47.8114 21.7784 47.799C21.7869 47.7928 21.7938 47.788 21.7986 47.7847L21.8042 47.7809L21.8058 47.7799L21.8063 47.7796L21.8065 47.7794C21.8065 47.7794 21.8066 47.7794 21.8361 47.8211L21.8065 47.7794C21.8316 47.7634 21.8656 47.7697 21.8825 47.7935Z" fill="#007867"/>
<path fill-rule="evenodd" clip-rule="evenodd" d="M19.7558 48.2042L19.7563 48.2037L19.7589 48.2013C19.7613 48.1991 19.7651 48.1957 19.7701 48.1914C19.7801 48.1828 19.7952 48.1705 19.8147 48.1562C19.854 48.1275 19.9106 48.0913 19.9801 48.061C20.1189 48.0004 20.3061 47.9644 20.512 48.0549C20.5394 48.0669 20.5719 48.0555 20.5846 48.0294C20.5972 48.0033 20.5853 47.9724 20.5578 47.9603C20.3144 47.8533 20.0926 47.8974 19.9346 47.9662C19.8558 48.0006 19.7921 48.0414 19.7481 48.0736C19.7261 48.0897 19.7088 48.1038 19.6969 48.114C19.691 48.1191 19.6864 48.1232 19.6832 48.1261L19.6794 48.1296L19.6783 48.1307L19.678 48.131L19.6778 48.1311C19.6778 48.1311 19.6778 48.1312 19.7168 48.1677L19.6778 48.1311C19.6566 48.1517 19.6569 48.1847 19.6784 48.2048C19.7 48.225 19.7346 48.2247 19.7558 48.2042Z" fill="#007867"/>
<path fill-rule="evenodd" clip-rule="evenodd" d="M21.4739 50.0118L21.4741 50.0116L21.4753 50.0111L21.4802 50.0088C21.4846 50.0068 21.4913 50.0038 21.4999 50.0001C21.5172 49.9927 21.5421 49.9825 21.5727 49.9713C21.6341 49.949 21.7166 49.9235 21.8032 49.9097C21.8905 49.8959 21.9774 49.8947 22.0501 49.9168C22.1201 49.9382 22.1789 49.9817 22.2142 50.064C22.2256 50.0907 22.2575 50.1035 22.2855 50.0926C22.3134 50.0817 22.3268 50.0513 22.3154 50.0247C22.267 49.9117 22.182 49.8477 22.0834 49.8176C21.9874 49.7884 21.8809 49.7918 21.7853 49.807C21.6889 49.8223 21.599 49.8502 21.5336 49.8741C21.5008 49.886 21.4738 49.8971 21.4549 49.9052C21.4455 49.9092 21.4381 49.9125 21.4329 49.9149L21.427 49.9176L21.4253 49.9184L21.4249 49.9186L21.4247 49.9187C21.4247 49.9187 21.4246 49.9188 21.4492 49.9652L21.4247 49.9187C21.3977 49.9317 21.3868 49.963 21.4004 49.9887C21.414 50.0144 21.4469 50.0247 21.4739 50.0118Z" fill="#007867"/>
<path fill-rule="evenodd" clip-rule="evenodd" d="M20.5001 51.5842C20.5249 51.5678 20.559 51.5738 20.5761 51.5975L20.5311 51.627L20.4861 51.6566C20.4689 51.6329 20.4752 51.6005 20.5001 51.5842ZM20.5311 51.627C20.4861 51.6566 20.4861 51.6566 20.4861 51.6566L20.5068 51.6851C20.5203 51.7036 20.5401 51.7308 20.5654 51.7655C20.6162 51.8348 20.689 51.9339 20.7775 52.0532C20.9544 52.2917 21.1941 52.611 21.4449 52.9338C21.6956 53.2565 21.9579 53.5833 22.1799 53.8367C22.2908 53.9633 22.3924 54.0723 22.4778 54.1536C22.5205 54.1941 22.5599 54.2285 22.595 54.2548C22.6291 54.2803 22.663 54.3013 22.6944 54.3112C22.7231 54.3202 22.754 54.3054 22.7635 54.278C22.7729 54.2507 22.7574 54.2213 22.7287 54.2123C22.7159 54.2083 22.6942 54.1966 22.6627 54.1729C22.6322 54.1501 22.5961 54.1189 22.5551 54.0798C22.473 54.0018 22.3739 53.8955 22.2639 53.7699C22.0439 53.5189 21.7831 53.194 21.5329 52.8718C21.2827 52.5498 21.0435 52.2312 20.8668 51.9931C20.7785 51.874 20.7058 51.7751 20.6552 51.7059C20.6299 51.6713 20.6101 51.6442 20.5967 51.6257L20.5761 51.5975C20.5761 51.5975 20.5761 51.5975 20.5311 51.627Z" fill="#007867"/>
<path fill-rule="evenodd" clip-rule="evenodd" d="M20.3083 52.0213C20.3083 51.9925 20.3328 51.9692 20.363 51.9692H20.7894C20.8196 51.9692 20.8441 51.9925 20.8441 52.0213C20.8441 52.0501 20.8196 52.0734 20.7894 52.0734H20.363C20.3328 52.0734 20.3083 52.0501 20.3083 52.0213Z" fill="#007867"/>
<path fill-rule="evenodd" clip-rule="evenodd" d="M20.8191 52.9421C20.8204 52.9134 20.8459 52.8911 20.8761 52.8923L21.5451 52.9197C21.5753 52.921 21.5987 52.9453 21.5974 52.974C21.5961 53.0028 21.5706 53.0251 21.5404 53.0238L20.8714 52.9964C20.8412 52.9952 20.8178 52.9709 20.8191 52.9421Z" fill="#007867"/>
<path fill-rule="evenodd" clip-rule="evenodd" d="M21.2922 52.1547C21.3218 52.1605 21.3408 52.1881 21.3346 52.2163L21.262 52.5483C21.2559 52.5764 21.2269 52.5945 21.1974 52.5886C21.1678 52.5828 21.1488 52.5552 21.155 52.527L21.2276 52.195C21.2337 52.1669 21.2627 52.1488 21.2922 52.1547Z" fill="#007867"/>
<path fill-rule="evenodd" clip-rule="evenodd" d="M21.9943 53.1633C22.0244 53.1645 22.0479 53.1887 22.0466 53.2175L22.0336 53.5189C22.0323 53.5477 22.0068 53.57 21.9767 53.5688C21.9465 53.5676 21.923 53.5434 21.9243 53.5146L21.9374 53.2132C21.9386 53.1844 21.9641 53.1621 21.9943 53.1633Z" fill="#007867"/>
<path fill-rule="evenodd" clip-rule="evenodd" d="M24.8477 51.5974C24.8648 51.5738 24.8989 51.5678 24.9237 51.5842C24.9486 51.6005 24.9548 51.633 24.9376 51.6566L24.8927 51.627L24.8477 51.5974ZM24.8477 51.5974C24.8477 51.5974 24.8477 51.5974 24.8927 51.627C24.9376 51.6566 24.9376 51.6566 24.9376 51.6566L24.9169 51.6851C24.9034 51.7037 24.8835 51.7309 24.8581 51.7655C24.8073 51.8348 24.7343 51.9339 24.6457 52.0532C24.4684 52.2917 24.2283 52.611 23.9773 52.9338C23.7263 53.2565 23.4638 53.5833 23.242 53.8367C23.1311 53.9632 23.0297 54.0723 22.9444 54.1535C22.9018 54.1941 22.8626 54.2284 22.8276 54.2547C22.7937 54.2802 22.76 54.3013 22.7288 54.3112C22.7002 54.3202 22.6692 54.3055 22.6597 54.2782C22.6501 54.2509 22.6656 54.2214 22.6943 54.2123C22.7068 54.2083 22.7284 54.1967 22.7598 54.173C22.7901 54.1502 22.8261 54.1189 22.8671 54.0799C22.9489 54.0019 23.048 53.8955 23.158 53.7699C23.3778 53.5189 23.6388 53.194 23.8894 52.8718C24.1398 52.5498 24.3794 52.2312 24.5564 51.993C24.6449 51.874 24.7177 51.775 24.7684 51.7059C24.7938 51.6713 24.8136 51.6442 24.8271 51.6257L24.8477 51.5974Z" fill="#007867"/>
<path fill-rule="evenodd" clip-rule="evenodd" d="M24.5795 52.0213C24.5795 51.9925 24.604 51.9692 24.6342 51.9692H25.0606C25.0908 51.9692 25.1153 51.9925 25.1153 52.0213C25.1153 52.0501 25.0908 52.0734 25.0606 52.0734H24.6342C24.604 52.0734 24.5795 52.0501 24.5795 52.0213Z" fill="#007867"/>
<path fill-rule="evenodd" clip-rule="evenodd" d="M24.6044 52.9421C24.6057 52.9709 24.5823 52.9952 24.5521 52.9964L23.8831 53.0238C23.8529 53.0251 23.8274 53.0028 23.8261 52.974C23.8248 52.9453 23.8482 52.921 23.8784 52.9197L24.5474 52.8923C24.5776 52.8911 24.6031 52.9134 24.6044 52.9421Z" fill="#007867"/>
<path fill-rule="evenodd" clip-rule="evenodd" d="M24.1313 52.1547C24.1608 52.1488 24.1898 52.1669 24.1959 52.195L24.2685 52.527C24.2747 52.5552 24.2557 52.5828 24.2261 52.5886C24.1966 52.5945 24.1676 52.5764 24.1615 52.5483L24.0889 52.2163C24.0827 52.1881 24.1017 52.1605 24.1313 52.1547Z" fill="#007867"/>
<path fill-rule="evenodd" clip-rule="evenodd" d="M23.4293 53.1633C23.4595 53.1621 23.485 53.1844 23.4862 53.2132L23.4993 53.5146C23.5005 53.5434 23.4771 53.5676 23.4469 53.5688C23.4167 53.57 23.3912 53.5477 23.39 53.5189L23.3769 53.2175C23.3757 53.1887 23.3991 53.1645 23.4293 53.1633Z" fill="#007867"/>
<defs>
<linearGradient id="paint0_linear_413_40369" x1="53.1016" y1="75" x2="91.0268" y2="3.67788" gradientUnits="userSpaceOnUse">
<stop/>
<stop offset="1" stop-opacity="0.01"/>
</linearGradient>
<linearGradient id="paint1_linear_413_40369" x1="39.6749" y1="28.5914" x2="29.9716" y2="58.676" gradientUnits="userSpaceOnUse">
<stop stop-color="#00A66F"/>
<stop offset="1" stop-color="#007867"/>
</linearGradient>
</defs>
</svg>
