<svg id="Layer_1" data-name="Layer 1" xmlns="http://www.w3.org/2000/svg" viewBox="0 0 283.464 283.465"><defs><style>.cls-1{fill:#44c8f5;}.cls-2{fill:#ef4136;}.cls-3{fill:#303188;}</style></defs><path class="cls-1" d="M69.971,154.52c-10.034-7.659-18.238,7.038-7.308,15.291-13.876,0-21.024-10.227-21.024-21.035a17.589,17.589,0,0,1,17.519-17.529c7.012,0,12.473,2.94,17.985,9.634,7.756,9.417,17.041,28.15,31.1,28.93C91.425,181.693,76.351,159.387,69.971,154.52Z"/><path class="cls-1" d="M69.676,118.978a8.765,8.765,0,1,1-8.765-8.766A8.765,8.765,0,0,1,69.676,118.978Z"/><path class="cls-2" d="M62.663,169.811c14.058-.78,23.341-19.513,31.1-28.93,5.513-6.694,10.974-9.634,17.986-9.634a17.588,17.588,0,0,1,17.518,17.529c0,10.808-7.147,21.035-21.025,21.035,10.932-8.253,2.728-22.95-7.306-15.291C94.554,159.387,79.48,181.693,62.663,169.811Z"/><path class="cls-2" d="M101.229,118.978a8.764,8.764,0,1,0,8.764-8.766A8.764,8.764,0,0,0,101.229,118.978Z"/><path class="cls-3" d="M160.007,121.933a9.593,9.593,0,0,1,3.772,3.753,12.146,12.146,0,0,1,0,11.2,9.56,9.56,0,0,1-3.772,3.773,11.084,11.084,0,0,1-5.454,1.328,10.1,10.1,0,0,1-3.929-.742,7.542,7.542,0,0,1-2.99-2.228v2.7h-4.652V112.707h4.886v10.672a8.191,8.191,0,0,1,2.952-2.071,9.651,9.651,0,0,1,3.733-.7A11.084,11.084,0,0,1,160.007,121.933Zm-1.564,14.074a7.3,7.3,0,0,0,0-9.461,5.908,5.908,0,0,0-4.438-1.8,6.29,6.29,0,0,0-3.166.8,5.8,5.8,0,0,0-2.229,2.287,7.626,7.626,0,0,0,0,6.88A5.8,5.8,0,0,0,150.839,137a6.289,6.289,0,0,0,3.166.8A5.907,5.907,0,0,0,158.443,136.007Z"/><path class="cls-3" d="M190.049,120.838v20.876H185.4v-2.658a7.8,7.8,0,0,1-2.932,2.17,9.437,9.437,0,0,1-3.792.761,9.07,9.07,0,0,1-6.588-2.326q-2.4-2.324-2.4-6.9V120.838h4.887V132.1a6.044,6.044,0,0,0,1.271,4.2,4.654,4.654,0,0,0,3.616,1.387,5.475,5.475,0,0,0,4.163-1.622,6.518,6.518,0,0,0,1.544-4.671V120.838Z"/><path class="cls-3" d="M197.985,141.323a12.471,12.471,0,0,1-3.871-1.681l1.877-3.714a12.013,12.013,0,0,0,3.382,1.5,14.034,14.034,0,0,0,3.889.567q4.379,0,4.379-2.306a1.542,1.542,0,0,0-1.114-1.525,19.264,19.264,0,0,0-3.577-.821,28.938,28.938,0,0,1-4.2-.9,6.443,6.443,0,0,1-2.815-1.779,4.965,4.965,0,0,1-1.192-3.538,5.559,5.559,0,0,1,2.483-4.749,11.293,11.293,0,0,1,6.7-1.779,19.391,19.391,0,0,1,4.3.488,12.118,12.118,0,0,1,3.519,1.31l-1.877,3.714a11.581,11.581,0,0,0-5.981-1.564,6.628,6.628,0,0,0-3.264.645,1.925,1.925,0,0,0-1.115,1.7,1.7,1.7,0,0,0,1.193,1.661,18.856,18.856,0,0,0,3.694.919,28.686,28.686,0,0,1,4.105.9,6.439,6.439,0,0,1,2.756,1.72,4.8,4.8,0,0,1,1.153,3.44,5.445,5.445,0,0,1-2.541,4.692,11.988,11.988,0,0,1-6.919,1.758A18.683,18.683,0,0,1,197.985,141.323Z"/><path class="cls-3" d="M218.157,141.323a12.475,12.475,0,0,1-3.87-1.681l1.876-3.714a12.039,12.039,0,0,0,3.382,1.5,14.041,14.041,0,0,0,3.89.567q4.377,0,4.378-2.306a1.541,1.541,0,0,0-1.114-1.525,19.244,19.244,0,0,0-3.577-.821,28.938,28.938,0,0,1-4.2-.9,6.44,6.44,0,0,1-2.814-1.779,4.965,4.965,0,0,1-1.193-3.538,5.562,5.562,0,0,1,2.483-4.749,11.3,11.3,0,0,1,6.7-1.779,19.407,19.407,0,0,1,4.3.488,12.111,12.111,0,0,1,3.518,1.31l-1.877,3.714a11.578,11.578,0,0,0-5.981-1.564,6.63,6.63,0,0,0-3.264.645,1.924,1.924,0,0,0-1.114,1.7,1.7,1.7,0,0,0,1.192,1.661,18.87,18.87,0,0,0,3.695.919,28.669,28.669,0,0,1,4.1.9,6.433,6.433,0,0,1,2.756,1.72,4.8,4.8,0,0,1,1.153,3.44,5.445,5.445,0,0,1-2.541,4.692,11.988,11.988,0,0,1-6.919,1.758A18.694,18.694,0,0,1,218.157,141.323Z"/><path class="cls-1" d="M148.283,169.413a9.8,9.8,0,0,1-3.9-3.745,11.208,11.208,0,0,1,0-10.852,9.85,9.85,0,0,1,3.9-3.727,12.456,12.456,0,0,1,11.256,0,9.854,9.854,0,0,1,3.9,3.727,11.2,11.2,0,0,1,0,10.852,9.8,9.8,0,0,1-3.9,3.745,12.447,12.447,0,0,1-11.256,0Zm9.988-4.532a7.113,7.113,0,0,0,0-9.3,5.866,5.866,0,0,0-4.379-1.767,5.807,5.807,0,0,0-4.361,1.767,7.176,7.176,0,0,0,0,9.3,5.807,5.807,0,0,0,4.361,1.767A5.866,5.866,0,0,0,158.271,164.881Z"/><path class="cls-1" d="M201.527,151.992q2.267,2.249,2.267,6.742v11.755h-4.8v-11.14A6.011,6.011,0,0,0,197.8,155.3a4.3,4.3,0,0,0-3.419-1.364,5.011,5.011,0,0,0-3.88,1.594,6.5,6.5,0,0,0-1.46,4.552v10.411h-4.8v-11.14a6.005,6.005,0,0,0-1.191-4.053,4.3,4.3,0,0,0-3.419-1.364,5.026,5.026,0,0,0-3.9,1.575,6.551,6.551,0,0,0-1.441,4.571v10.411h-4.8V149.975h4.571v2.612a7.451,7.451,0,0,1,2.881-2.112,9.777,9.777,0,0,1,3.842-.73,9.285,9.285,0,0,1,4.091.864,6.643,6.643,0,0,1,2.824,2.555,8.525,8.525,0,0,1,3.265-2.516,10.6,10.6,0,0,1,4.418-.9A8.346,8.346,0,0,1,201.527,151.992Z"/><path class="cls-1" d="M227.842,152.011q2.343,2.268,2.343,6.723v11.755h-4.8v-11.14a5.76,5.76,0,0,0-1.267-4.053,4.692,4.692,0,0,0-3.612-1.364,5.545,5.545,0,0,0-4.187,1.594,6.353,6.353,0,0,0-1.537,4.591v10.372h-4.8V149.975h4.571v2.651a7.5,7.5,0,0,1,3-2.151,10.778,10.778,0,0,1,4.073-.73A8.576,8.576,0,0,1,227.842,152.011Z"/><path class="cls-1" d="M236.562,145.769a2.832,2.832,0,0,1,0-4.111,3.085,3.085,0,0,1,2.189-.826,3.171,3.171,0,0,1,2.19.788,2.539,2.539,0,0,1,.884,1.978,2.893,2.893,0,0,1-.865,2.132,2.988,2.988,0,0,1-2.209.865A3.081,3.081,0,0,1,236.562,145.769Zm-.23,4.206h4.8v20.514h-4.8Z"/></svg>