<?xml version="1.0" standalone="no"?>
<!DOCTYPE svg PUBLIC "-//W3C//DTD SVG 20010904//EN"
 "http://www.w3.org/TR/2001/REC-SVG-20010904/DTD/svg10.dtd">
<svg version="1.0" xmlns="http://www.w3.org/2000/svg"
 width="512.000000pt" height="512.000000pt" viewBox="0 0 512.000000 512.000000"
 preserveAspectRatio="xMidYMid meet">

<g transform="translate(0.000000,512.000000) scale(0.100000,-0.100000)"
fill="#000000" stroke="none">
<path d="M1483 4285 c-24 -26 -43 -50 -43 -53 0 -4 -14 -23 -30 -42 -17 -19
-43 -51 -59 -70 -16 -19 -46 -55 -68 -80 -21 -25 -51 -63 -68 -84 -77 -99
-121 -152 -132 -159 -7 -4 -13 -15 -13 -22 0 -8 -7 -15 -15 -15 -8 0 -15 -6
-15 -12 0 -7 -16 -30 -35 -52 -19 -21 -35 -45 -35 -54 0 -8 -3 -12 -7 -9 -3 4
-22 -15 -42 -42 -41 -55 -103 -132 -143 -176 -16 -16 -28 -36 -28 -42 0 -7 -6
-13 -12 -13 -7 0 -25 -18 -40 -39 -15 -21 -41 -54 -57 -72 -16 -19 -54 -65
-85 -102 l-57 -68 25 -27 c62 -68 76 -85 76 -91 0 -3 12 -19 28 -36 15 -16 36
-41 48 -57 30 -39 94 -116 127 -150 15 -16 27 -32 27 -36 0 -4 15 -23 33 -42
17 -19 51 -61 75 -92 23 -32 50 -58 58 -58 8 0 13 -4 10 -9 -3 -5 3 -20 14
-34 11 -14 20 -27 20 -29 0 -3 23 -29 51 -59 28 -30 65 -74 82 -98 16 -24 37
-52 46 -61 25 -25 93 -109 120 -146 13 -19 28 -34 33 -34 4 0 8 -5 8 -11 0
-11 97 -129 118 -142 6 -4 12 -15 12 -22 0 -8 8 -15 18 -15 9 0 475 0 1036 0
l1018 0 39 43 c21 23 38 46 39 51 0 5 10 19 23 31 12 12 45 50 74 86 29 35 76
93 105 128 29 35 71 87 92 115 21 28 42 53 45 56 12 10 141 168 141 173 0 3
12 19 28 35 15 17 47 56 72 87 25 31 54 66 66 78 11 12 34 40 50 62 16 22 34
45 39 51 6 6 28 33 50 60 22 26 48 56 58 66 9 10 17 20 17 23 0 6 27 40 58 71
27 28 28 48 4 66 -10 7 -29 29 -42 48 -25 35 -28 39 -83 101 -18 19 -45 52
-62 74 -82 105 -191 237 -212 260 -7 8 -13 18 -13 24 0 6 -7 11 -15 11 -8 0
-15 5 -15 11 0 6 -15 28 -32 49 -18 20 -49 58 -68 84 -19 26 -44 57 -55 69
-11 13 -40 47 -65 77 -24 30 -50 59 -57 63 -7 4 -13 13 -13 19 0 6 -15 27 -32
47 -18 21 -46 54 -63 75 -16 20 -45 53 -62 72 -18 20 -33 39 -33 42 -1 10 -40
55 -44 51 -2 -2 -7 -20 -10 -39 -5 -23 -4 -30 2 -21 8 11 14 9 31 -8 11 -11
21 -24 21 -28 0 -6 13 -22 58 -67 12 -13 22 -27 22 -31 0 -4 11 -16 24 -26 17
-13 22 -25 19 -44 -5 -23 -10 -25 -54 -25 -46 0 -49 2 -49 26 0 14 -4 23 -10
19 -5 -3 -10 -15 -10 -26 0 -30 -28 -23 -32 9 -2 18 -8 27 -20 26 -14 -1 -17
4 -13 25 3 14 2 20 -1 14 -3 -7 -13 -13 -21 -13 -15 0 -15 2 -1 18 9 9 18 26
20 37 2 12 14 22 29 25 23 5 24 7 13 29 l-13 25 -12 -27 c-7 -15 -20 -29 -31
-32 -10 -4 -18 -13 -18 -21 0 -19 -16 -18 -24 1 -3 8 -13 15 -22 15 -10 0 -14
3 -11 6 3 4 2 15 -4 25 -7 15 -6 17 6 13 10 -4 15 0 15 14 0 15 -5 18 -24 15
-13 -3 -26 -1 -30 5 -3 5 22 11 60 15 36 2 66 6 68 8 2 2 6 16 10 31 5 21 2
30 -12 37 -27 14 -60 3 -65 -23 -4 -21 -4 -21 -6 2 l-1 22 -969 0 c-533 0
-981 2 -997 6 -25 4 -35 -2 -71 -41z m58 -8 c15 4 22 0 26 -16 3 -11 12 -21
19 -21 8 0 14 -6 14 -14 0 -8 8 -17 18 -21 16 -6 16 -7 0 -16 -10 -6 -18 -16
-18 -23 0 -8 -8 -12 -23 -9 -31 6 -65 -30 -47 -52 10 -12 9 -18 -5 -31 -14
-14 -21 -15 -36 -6 -28 18 -49 14 -49 -8 0 -11 5 -20 10 -20 6 0 10 -9 10 -20
0 -11 -5 -20 -11 -20 -6 0 -8 -9 -4 -20 8 -26 1 -25 -25 2 -30 32 -45 12 -25
-35 15 -37 15 -37 -10 -47 -18 -7 -25 -17 -25 -35 0 -16 -6 -25 -15 -25 -8 0
-15 -7 -15 -15 0 -8 -4 -15 -10 -15 -5 0 -10 7 -10 15 0 8 -7 15 -15 15 -11 0
-15 11 -15 39 0 35 -3 40 -26 43 l-26 3 26 28 c14 15 26 32 26 38 0 5 11 9 24
9 20 0 22 4 18 27 -4 21 -2 25 11 20 10 -4 18 1 22 14 4 10 12 19 20 19 8 0
11 7 8 20 -6 23 12 27 21 5 3 -8 12 -15 21 -15 18 0 19 4 3 31 -10 17 -10 23
0 26 6 3 12 11 12 18 0 7 11 16 24 19 14 3 28 16 32 29 4 12 12 26 18 30 8 6
8 10 -1 13 -7 3 -9 13 -6 22 4 9 8 11 10 5 2 -6 13 -9 24 -6z m997 -54 c474
-2 862 -7 862 -11 0 -8 -1685 -5 -1747 3 -24 4 -43 11 -43 17 0 7 11 7 33 2
17 -4 420 -9 895 -11z m897 -43 c13 0 34 -20 59 -54 21 -30 53 -69 72 -87 19
-18 34 -36 34 -40 0 -7 21 -33 73 -91 16 -17 42 -51 59 -75 17 -24 35 -43 40
-43 4 0 8 -5 8 -10 0 -13 112 -150 122 -150 4 0 8 -7 8 -15 0 -7 6 -18 13 -22
13 -8 101 -113 127 -153 8 -12 24 -32 35 -44 11 -13 44 -53 74 -89 30 -37 58
-67 63 -67 4 0 8 -5 8 -11 0 -10 29 -48 81 -105 28 -32 23 -64 -16 -103 -19
-19 -35 -37 -35 -42 0 -4 -10 -19 -22 -32 -28 -28 -62 -69 -107 -127 -19 -25
-41 -49 -48 -53 -7 -4 -13 -15 -13 -22 0 -8 -4 -15 -10 -15 -5 0 -16 -12 -24
-27 -9 -16 -40 -55 -71 -88 -30 -33 -55 -63 -55 -67 0 -5 -18 -27 -40 -49 -22
-23 -40 -45 -40 -48 0 -4 -8 -16 -18 -27 -22 -24 -128 -154 -165 -202 -16 -20
-32 -38 -38 -40 -5 -2 -9 -10 -9 -17 0 -8 -6 -18 -13 -22 -7 -4 -33 -33 -57
-63 -25 -30 -48 -56 -52 -58 -5 -2 -8 -10 -8 -18 0 -38 -34 -39 -938 -34
l-874 5 -21 30 c-12 16 -30 38 -39 47 -10 10 -18 22 -18 27 0 5 -7 14 -15 21
-9 7 -68 79 -133 159 -64 80 -122 152 -129 159 -7 7 -34 41 -60 75 -26 34 -52
67 -58 72 -6 6 -31 35 -56 65 -24 30 -48 60 -54 66 -5 6 -21 25 -35 43 -29 38
-131 163 -166 205 -13 15 -24 31 -24 35 0 4 -8 14 -17 23 -27 24 -63 69 -63
77 0 10 39 62 90 119 8 10 31 38 50 62 19 25 49 61 67 80 18 19 33 41 33 48 0
7 7 15 15 18 8 4 15 11 15 16 0 5 12 22 28 38 15 15 43 47 62 71 19 24 43 51
53 61 9 10 17 22 17 27 0 5 4 11 9 13 5 2 37 39 71 83 35 44 66 82 70 85 3 3
21 25 40 50 18 25 44 56 57 70 18 20 107 130 140 175 34 44 68 81 79 85 9 4
1493 3 1769 0z m-1865 -50 c0 -5 -2 -10 -4 -10 -3 0 -8 5 -11 10 -3 6 -1 10 4
10 6 0 11 -4 11 -10z m2240 -120 c0 -5 -4 -10 -10 -10 -5 0 -10 5 -10 10 0 6
5 10 10 10 6 0 10 -4 10 -10z m-130 -40 c0 -5 -2 -10 -4 -10 -3 0 -8 5 -11 10
-3 6 -1 10 4 10 6 0 11 -4 11 -10z m176 -35 c-3 -9 2 -11 16 -7 18 4 19 3 9
-17 -7 -11 -18 -21 -26 -21 -8 0 -15 -8 -15 -19 0 -19 25 -31 68 -31 19 0 21
-4 16 -26 -6 -24 -5 -25 14 -13 27 17 40 4 24 -21 -10 -16 -10 -20 2 -20 8 0
22 8 32 18 17 16 17 16 11 -7 -4 -18 -1 -24 14 -28 12 -4 22 -17 26 -34 3 -16
11 -28 17 -27 6 2 12 -1 13 -6 1 -5 8 -13 17 -18 20 -11 21 -28 1 -28 -32 0
-13 -20 25 -26 22 -4 40 -12 41 -18 1 -6 0 -41 -1 -78 l-2 -68 47 0 47 0 -7
-41 -7 -42 38 8 c22 4 42 12 46 18 4 7 5 -8 2 -33 -4 -40 -3 -43 9 -27 21 25
27 21 21 -13 -4 -19 -2 -30 5 -30 6 0 11 7 11 15 0 8 7 15 16 15 14 0 14 -3 4
-15 -9 -10 -9 -15 -1 -15 6 0 11 -5 11 -11 0 -16 26 -39 44 -39 9 0 16 -5 16
-10 0 -11 10 -25 43 -61 19 -21 14 -44 -9 -35 -11 4 -14 -6 -14 -44 0 -40 3
-48 15 -44 19 8 19 0 -1 -42 -9 -19 -21 -34 -28 -34 -6 0 -17 -13 -24 -30 -16
-36 -32 -39 -33 -7 -1 20 -2 20 -6 2 -14 -68 -11 -64 -49 -58 l-35 6 3 -39 3
-39 -42 3 -41 2 1 -49 c1 -27 5 -47 9 -45 4 3 5 -2 2 -10 -5 -12 -11 -13 -25
-5 -10 5 -19 14 -19 19 0 6 -11 10 -25 10 -19 0 -25 -5 -25 -21 0 -12 7 -27
16 -34 13 -9 14 -16 6 -31 -6 -10 -12 -13 -12 -6 0 8 -17 12 -50 12 l-50 0 0
35 c0 18 6 38 13 42 7 4 25 23 40 41 15 19 27 30 27 26 0 -4 8 3 19 15 12 14
25 19 36 15 10 -4 21 -1 26 7 12 19 11 59 -2 59 -5 0 -8 4 -4 10 3 5 11 7 19
4 7 -3 18 7 24 21 6 14 16 25 22 25 14 0 13 -33 -2 -49 -11 -10 -9 -12 7 -9
22 4 33 44 16 61 -14 14 5 47 28 47 11 0 21 -7 25 -15 3 -8 12 -15 21 -15 12
0 15 12 15 56 0 34 -4 53 -10 49 -5 -3 -10 3 -10 15 0 12 5 18 10 15 6 -4 10
14 10 47 0 30 6 60 12 66 7 7 -2 6 -20 -3 -17 -9 -32 -21 -32 -26 0 -14 -40
-11 -56 5 -12 13 -12 17 1 30 18 18 19 38 3 54 -15 15 -48 16 -48 2 0 -12 -10
-13 -28 -1 -11 7 -11 12 -1 28 10 17 9 24 -4 44 -10 13 -17 19 -17 13 0 -5 5
-15 12 -22 6 -6 9 -15 5 -18 -8 -8 -66 38 -66 54 -1 6 -7 12 -13 13 -10 0 -10
2 0 6 6 2 12 9 12 14 0 6 -4 8 -9 5 -7 -5 -28 7 -71 42 -3 2 -4 37 -2 78 l3
74 -40 0 c-29 0 -40 -4 -43 -17 -3 -15 -4 -15 -17 0 -12 15 -11 17 3 17 12 0
16 10 16 40 0 22 -4 40 -10 40 -5 0 -10 -8 -10 -18 0 -34 -11 -30 -62 19 -28
27 -54 49 -59 49 -5 0 -9 7 -9 16 0 8 -4 13 -9 9 -15 -8 -25 15 -12 28 6 6 11
20 11 31 0 16 -3 17 -12 8 -17 -17 -38 -15 -38 4 0 11 -6 15 -19 11 -16 -4
-19 0 -16 24 3 20 0 29 -10 29 -8 0 -15 4 -15 9 0 11 36 21 78 21 26 0 32 4
32 21 0 12 4 17 11 14 6 -4 8 -13 5 -20z m-2616 -95 c35 0 39 -3 45 -32 6 -23
3 -35 -9 -43 -9 -7 -16 -15 -16 -18 0 -3 -11 -18 -24 -32 -17 -18 -26 -22 -29
-13 -3 7 -6 1 -6 -14 -1 -25 -21 -42 -21 -18 0 14 -33 13 -48 -2 -15 -15 -16
-48 -2 -48 6 0 10 -6 10 -14 0 -12 -11 -14 -51 -11 l-51 5 7 -38 c4 -20 11
-39 16 -40 14 -5 -10 -32 -28 -32 -7 0 -16 7 -19 15 -4 8 -17 15 -30 15 -21 0
-24 5 -24 38 0 44 36 87 63 76 10 -3 17 -1 17 5 0 6 -7 11 -15 11 -8 0 -15 5
-15 10 0 6 7 10 15 10 8 0 15 4 15 9 0 4 11 6 25 3 27 -5 32 7 13 26 -6 6 -9
15 -5 19 4 4 13 1 19 -5 18 -18 28 -15 28 8 0 10 -8 24 -17 29 -17 10 -17 10
0 11 9 0 17 5 17 10 0 16 37 12 44 -5 3 -8 13 -15 22 -15 14 0 16 9 12 63 -2
34 -3 52 -1 40 4 -19 11 -23 43 -23z m-70 -189 c0 -12 -20 -25 -27 -18 -7 7 6
27 18 27 5 0 9 -4 9 -9z m-225 -110 c-3 -12 -15 -21 -25 -21 -17 0 -17 2 3 24
25 28 32 27 22 -3z m3123 -33 c-6 -18 -28 -21 -28 -4 0 9 7 16 16 16 9 0 14
-5 12 -12z m-3191 -40 c-2 -20 3 -23 41 -26 33 -3 42 0 42 13 0 27 25 11 28
-18 4 -29 -43 -101 -59 -91 -5 3 -13 -6 -19 -20 -5 -14 -14 -26 -20 -26 -5 0
-10 -6 -10 -13 0 -19 -40 -41 -53 -28 -17 17 -27 13 -27 -9 0 -11 5 -20 11
-20 6 0 7 -5 2 -12 -4 -7 -6 -21 -4 -32 1 -11 -2 -16 -8 -11 -23 14 -50 -7
-65 -50 -13 -40 -13 -50 1 -90 12 -36 21 -47 42 -51 24 -5 26 -8 23 -55 l-4
-49 40 0 c23 0 43 6 46 13 3 6 4 3 1 -9 -3 -12 1 -27 10 -34 9 -7 13 -21 10
-31 -8 -23 10 -25 19 -3 6 15 8 15 25 -2 10 -10 16 -23 14 -27 -3 -4 1 -14 7
-22 18 -22 -11 -45 -54 -45 -25 0 -36 -4 -36 -15 0 -8 -4 -15 -9 -15 -5 0 -14
7 -21 15 -10 13 -9 15 9 15 17 0 21 6 21 34 0 19 2 40 3 48 2 7 2 10 0 6 -7
-12 -103 -9 -103 2 0 6 5 10 10 10 14 0 13 33 -2 48 -15 15 -48 16 -48 2 0 -5
-6 -10 -14 -10 -9 0 -12 7 -9 20 3 11 0 20 -6 20 -6 0 -11 -4 -11 -10 0 -5 -3
-10 -8 -10 -4 0 -6 18 -4 40 4 37 2 40 -21 40 -16 0 -35 11 -51 31 -30 35 -35
60 -8 36 28 -26 32 -21 32 38 0 48 -2 55 -20 55 -27 0 -26 34 1 54 13 9 18 19
14 27 -5 7 -4 10 2 6 6 -4 13 0 17 8 8 21 26 19 26 -2 0 -15 2 -16 10 -3 9 13
11 13 20 0 8 -13 10 -13 10 1 0 9 -7 19 -15 23 -8 3 -15 16 -14 28 0 13 3 17
6 11 7 -18 20 -16 27 3 3 8 2 12 -4 9 -5 -3 -7 1 -4 9 4 11 14 13 35 9 18 -3
29 -1 29 6 0 6 -7 11 -15 11 -20 0 -19 10 3 26 9 7 38 14 65 14 33 0 47 4 47
14 0 8 -6 16 -14 19 -21 8 -25 54 -7 77 20 25 21 25 18 -2z m3421 -227 c3 -8
-1 -12 -9 -9 -7 2 -15 10 -17 17 -3 8 1 12 9 9 7 -2 15 -10 17 -17z m-3741
-178 c-3 -10 -5 -4 -5 12 0 17 2 24 5 18 2 -7 2 -21 0 -30z m118 -123 c3 -5 1
-10 -4 -10 -6 0 -11 5 -11 10 0 6 2 10 4 10 3 0 8 -4 11 -10z m164 -23 c6 -8
8 -17 4 -20 -7 -8 -33 11 -33 24 0 13 16 11 29 -4z m-61 -76 c3 -8 -1 -12 -9
-9 -7 2 -15 10 -17 17 -3 8 1 12 9 9 7 -2 15 -10 17 -17z m3442 9 c0 -5 -4
-10 -10 -10 -5 0 -10 5 -10 10 0 6 5 10 10 10 6 0 10 -4 10 -10z m150 -15 c0
-8 -7 -15 -15 -15 -8 0 -15 7 -15 15 0 8 7 15 15 15 8 0 15 -7 15 -15z m-3380
-125 c-12 -23 -30 -27 -30 -6 0 8 8 17 18 19 9 3 18 5 20 6 1 0 -2 -8 -8 -19z
m86 -85 c14 -25 36 -52 48 -61 14 -11 17 -18 9 -21 -16 -6 -17 -35 -1 -51 15
-15 48 -16 48 -1 0 6 6 9 13 6 6 -2 11 -11 9 -21 -2 -9 3 -16 10 -16 7 0 22
-14 33 -30 11 -17 26 -28 32 -25 7 2 12 1 12 -3 -4 -28 3 -52 16 -52 9 0 18
-7 21 -15 4 -8 12 -15 19 -15 8 0 15 -12 17 -27 2 -16 12 -32 24 -38 21 -10
21 -13 8 -45 -17 -40 -2 -68 20 -37 19 25 46 11 46 -24 0 -16 -4 -29 -9 -29
-5 0 -11 -10 -13 -21 -4 -31 -35 -49 -48 -29 -6 10 -10 11 -10 3 0 -25 -18
-13 -23 16 -4 17 -14 30 -26 34 -12 3 -21 12 -21 21 0 9 -7 16 -15 16 -8 0
-15 9 -15 20 0 14 -5 18 -17 13 -12 -5 -15 -2 -11 9 4 9 1 21 -5 27 -8 8 -5
11 11 11 19 0 22 5 22 40 l0 40 -40 0 c-35 0 -40 -3 -41 -22 0 -14 -6 -4 -15
24 -11 36 -20 49 -39 54 -14 3 -25 10 -25 16 0 5 -5 6 -12 2 -7 -5 -8 -3 -3 5
4 8 -1 18 -14 27 -26 19 -27 34 -2 34 11 0 22 -8 24 -17 3 -11 5 -7 6 10 1 22
-3 27 -24 27 -14 0 -25 -4 -25 -10 0 -5 -9 -10 -20 -10 -13 0 -20 7 -20 19 0
23 -55 81 -78 82 -11 0 -12 3 -5 6 9 3 5 14 -12 37 l-25 33 47 1 c31 0 49 5
55 16 15 27 36 18 64 -29z m2979 25 c3 -5 1 -10 -4 -10 -6 0 -11 5 -11 10 0 6
2 10 4 10 3 0 8 -4 11 -10z m-2920 -70 c3 -5 1 -10 -4 -10 -6 0 -11 5 -11 10
0 6 2 10 4 10 3 0 8 -4 11 -10z m2861 -18 c-14 -51 -17 -82 -7 -82 6 0 11 18
11 40 l0 40 40 0 c33 0 40 -3 40 -20 0 -11 5 -20 10 -20 18 0 10 -18 -24 -54
l-33 -36 -17 22 c-16 22 -16 22 -10 -19 5 -35 3 -43 -10 -43 -9 0 -16 -6 -16
-14 0 -22 -19 -30 -27 -11 -3 10 0 21 8 26 10 6 6 9 -15 9 -24 0 -27 -2 -16
-15 7 -9 9 -22 4 -32 -4 -10 -8 -25 -8 -33 -1 -8 -11 -16 -23 -18 -29 -4 -41
-21 -46 -65 -4 -44 -17 -62 -17 -24 0 25 -3 27 -40 27 -40 0 -40 0 -40 38 0
30 5 39 27 50 15 6 33 12 40 12 16 0 17 17 1 22 -7 3 -3 15 12 36 26 35 40 41
40 17 0 -8 6 -15 14 -15 9 0 17 16 21 41 4 23 20 60 36 84 16 24 29 48 29 55
0 6 5 8 10 5 6 -4 9 -14 6 -23z m-2828 -51 c3 -8 -1 -12 -9 -9 -7 2 -15 10
-17 17 -3 8 1 12 9 9 7 -2 15 -10 17 -17z m2742 -46 c0 -8 -4 -15 -10 -15 -5
0 -10 7 -10 15 0 8 5 15 10 15 6 0 10 -7 10 -15z m-160 -189 c0 -11 -19 -15
-25 -6 -3 5 1 10 9 10 9 0 16 -2 16 -4z m-73 -101 c0 -11 -4 -12 -14 -4 -7 6
-13 13 -13 15 0 2 6 4 13 4 8 0 14 -7 14 -15z m-7 -27 c0 -10 2 -10 8 -1 5 8
31 12 74 11 l65 -2 -28 -25 c-16 -14 -29 -31 -29 -38 0 -7 -5 -13 -10 -13 -6
0 -14 -8 -17 -17 -4 -10 -22 -31 -40 -47 -18 -16 -33 -38 -33 -49 0 -25 -24
-16 -28 11 -2 12 -10 22 -18 22 -18 0 -18 -9 2 -49 16 -33 11 -58 -6 -31 -8
13 -10 12 -10 -2 0 -19 -25 -25 -35 -8 -3 6 -22 10 -41 10 -19 0 -34 5 -34 10
0 6 7 10 15 10 8 0 15 5 15 10 0 6 -4 10 -10 10 -16 0 -12 15 13 43 26 30 37
34 37 12 0 -8 6 -15 14 -15 15 0 30 58 21 83 -9 23 14 32 30 11 19 -27 42 -5
26 24 -15 28 -14 42 4 42 8 0 15 -6 15 -12z m-2150 -98 l0 -50 44 0 c42 0 74
-19 48 -28 -21 -7 -13 -22 11 -22 13 0 27 -4 33 -10 6 -6 313 -11 859 -13
l850 -2 -900 -2 c-739 -2 -902 -5 -910 -16 -5 -7 -18 -16 -28 -20 -15 -6 -17
-3 -12 13 4 11 2 20 -3 20 -6 0 -13 11 -16 25 -5 18 -15 27 -35 31 -29 6 -78
59 -63 68 13 8 30 -8 35 -34 2 -15 5 -5 6 23 1 39 4 47 20 47 11 0 23 5 26 10
3 6 13 10 21 10 10 0 14 -13 14 -50z m30 36 c0 -3 -4 -8 -10 -11 -5 -3 -10 -1
-10 4 0 6 5 11 10 11 6 0 10 -2 10 -4z m2040 -21 c0 -8 -4 -15 -10 -15 -5 0
-10 7 -10 15 0 8 5 15 10 15 6 0 10 -7 10 -15z m-2018 -30 c0 -5 -5 -11 -11
-13 -6 -2 -11 4 -11 13 0 9 5 15 11 13 6 -2 11 -8 11 -13z m1878 -105 c0 -5
-8 -10 -17 -10 -15 0 -16 2 -3 10 19 12 20 12 20 0z m90 -70 c0 -11 -4 -20
-10 -20 -5 0 -10 9 -10 20 0 11 5 20 10 20 6 0 10 -9 10 -20z"/>
<path d="M1351 4014 c0 -11 3 -14 6 -6 3 7 2 16 -1 19 -3 4 -6 -2 -5 -13z"/>
<path d="M3870 3750 c0 -9 31 -30 44 -30 3 0 6 8 6 18 0 12 -8 18 -25 20 -14
1 -25 -3 -25 -8z"/>
<path d="M4000 3711 c0 -5 7 -14 15 -21 16 -14 18 -10 9 14 -6 17 -24 22 -24
7z"/>
<path d="M4128 3433 c7 -3 16 -2 19 1 4 3 -2 6 -13 5 -11 0 -14 -3 -6 -6z"/>
<path d="M4130 2730 c0 -5 5 -10 10 -10 6 0 10 5 10 10 0 6 -4 10 -10 10 -5 0
-10 -4 -10 -10z"/>
<path d="M1215 3750 c4 -6 11 -8 16 -5 14 9 11 15 -7 15 -8 0 -12 -5 -9 -10z"/>
<path d="M785 3330 c3 -5 8 -10 11 -10 2 0 4 5 4 10 0 6 -5 10 -11 10 -5 0 -7
-4 -4 -10z"/>
<path d="M625 3160 c-3 -5 -1 -10 4 -10 6 0 11 5 11 10 0 6 -2 10 -4 10 -3 0
-8 -4 -11 -10z"/>
<path d="M711 2944 c0 -11 3 -14 6 -6 3 7 2 16 -1 19 -3 4 -6 -2 -5 -13z"/>
<path d="M1040 2602 c0 -23 5 -42 10 -42 7 0 8 14 4 38 -9 51 -14 53 -14 4z"/>
<path d="M1005 2550 c3 -5 10 -10 16 -10 5 0 9 5 9 10 0 6 -7 10 -16 10 -8 0
-12 -4 -9 -10z"/>
<path d="M1200 2427 c0 -8 7 -18 16 -21 11 -4 14 -1 12 11 -4 21 -28 30 -28
10z"/>
<path d="M3680 2040 c0 -5 5 -10 10 -10 6 0 10 5 10 10 0 6 -4 10 -10 10 -5 0
-10 -4 -10 -10z"/>
<path d="M3682 4110 c0 -14 2 -19 5 -12 2 6 2 18 0 25 -3 6 -5 1 -5 -13z"/>
<path d="M284 1234 c3 -9 6 -20 6 -25 0 -5 5 -9 11 -9 6 0 9 7 5 15 -3 9 0 15
9 15 7 0 16 -8 18 -17 3 -11 5 -7 6 10 1 24 -3 27 -30 27 -24 0 -30 -3 -25
-16z"/>
<path d="M500 1043 c0 -117 5 -215 10 -223 12 -19 11 -31 10 193 -1 167 1 187
15 187 15 0 16 -19 12 -194 -2 -107 -7 -199 -11 -204 -9 -15 -36 -4 -36 14 0
8 -4 14 -10 14 -5 0 -10 -7 -10 -15 0 -8 -3 -15 -8 -15 -4 0 -13 -10 -21 -21
-10 -18 -10 -23 0 -30 18 -11 31 -1 24 21 -6 20 15 33 34 20 10 -6 8 -12 -6
-26 -11 -11 -23 -27 -26 -36 -4 -10 -14 -18 -24 -18 -12 0 -14 3 -6 8 9 5 4
14 -15 27 -14 11 -37 31 -49 44 -13 13 -23 21 -23 17 0 -10 33 -60 45 -68 15
-11 -9 -30 -29 -22 -14 5 -14 9 -4 22 11 13 11 14 -1 7 -9 -5 -23 2 -42 25
-34 38 -39 26 -7 -16 46 -60 92 -79 135 -57 31 16 82 71 83 90 0 6 6 13 13 15
9 4 13 60 15 226 l3 222 -35 0 -36 0 0 -207z m-70 -333 c0 -5 -7 -10 -16 -10
-8 0 -12 5 -9 10 3 6 10 10 16 10 5 0 9 -4 9 -10z"/>
<path d="M702 968 c2 -185 6 -281 13 -278 6 3 9 79 7 205 -1 110 2 225 7 255
6 40 9 -10 10 -192 1 -187 4 -248 14 -251 9 -4 9 -6 -1 -6 -7 -1 -10 -5 -7
-11 21 -34 25 13 25 275 l0 285 -35 0 -35 0 2 -282z m55 10 l-1 -253 -3 238
c-3 199 -6 239 -18 243 -21 9 -18 24 4 24 19 0 20 -9 18 -252z"/>
<path d="M982 1243 c-6 -2 -10 -9 -6 -14 3 -5 2 -14 -2 -21 -5 -8 -9 -6 -14 6
-5 16 -7 16 -30 -2 l-25 -20 -3 -257 c-2 -189 0 -256 8 -253 6 2 11 7 10 12
-1 5 4 13 12 17 7 5 8 9 2 9 -9 0 -11 230 -5 447 1 29 4 32 31 31 28 -1 29 -2
15 -18 -8 -9 -15 -24 -15 -33 0 -9 -4 -19 -10 -22 -6 -4 -9 -55 -8 -128 l2
-122 6 125 c6 110 6 99 7 -93 1 -121 4 -221 7 -225 3 -3 6 105 6 239 l0 245
28 15 c38 22 105 14 124 -15 4 -6 8 -1 8 12 0 15 -4 21 -12 16 -8 -5 -9 -2 -4
11 6 16 2 17 -34 12 -22 -3 -40 -1 -40 4 0 16 84 9 106 -9 39 -33 44 -63 44
-293 l0 -219 -30 5 c-16 3 -30 1 -30 -4 0 -5 16 -11 35 -13 l35 -4 0 241 c0
265 -3 279 -60 307 -33 17 -127 24 -158 11z"/>
<path d="M1390 1233 c-19 -10 -40 -29 -47 -43 -17 -33 -19 -520 -2 -503 10 10
14 390 5 448 -2 11 -1 14 1 8 3 -7 9 -13 15 -13 7 0 9 -15 5 -40 -3 -26 -1
-38 5 -34 6 4 14 0 19 -7 5 -9 9 9 9 48 0 79 13 93 86 93 50 0 55 -2 65 -27 5
-15 9 -51 8 -80 l-2 -53 -85 0 c-47 0 -82 -3 -79 -7 11 -10 149 -6 180 6 16 6
27 18 26 28 0 16 -1 16 -8 -1 -12 -32 -17 -6 -10 59 3 33 6 50 7 37 1 -13 7
-20 12 -17 11 7 15 -391 4 -419 -15 -40 -24 -8 -22 82 l2 97 6 -90 6 -90 1
120 c0 80 -2 110 -8 90 -8 -29 -8 -29 -6 7 3 34 0 38 -28 44 -38 9 -154 9
-162 0 -3 -3 32 -6 79 -6 l86 0 1 -137 c1 -75 4 -139 6 -143 2 -4 17 -5 32 -3
l28 5 -2 250 c-2 138 -5 254 -9 257 -3 3 -9 -1 -14 -9 -7 -10 -10 -11 -10 -2
0 6 -7 12 -15 12 -9 0 -12 -6 -8 -17 4 -13 -2 -11 -18 7 -21 22 -31 25 -86 22
-49 -2 -61 -6 -56 -17 6 -17 -22 -21 -32 -4 -22 35 110 52 188 25 41 -15 49
-8 15 13 -37 23 -147 25 -188 4z m-33 -55 c-3 -8 -6 -5 -6 6 -1 11 2 17 5 13
3 -3 4 -12 1 -19z"/>
<path d="M2028 1233 c-38 -24 -51 -62 -46 -134 4 -53 9 -65 37 -91 24 -22 36
-27 44 -19 8 8 2 14 -20 22 -17 6 -34 17 -37 25 -6 16 10 19 19 3 4 -6 13 -8
20 -5 15 5 37 -37 29 -57 -3 -8 15 -26 45 -45 55 -36 61 -38 61 -17 0 8 -3 14
-7 14 -19 -3 -22 3 -13 25 8 21 3 28 -50 66 -58 42 -70 61 -70 111 0 39 29 59
87 59 63 0 83 -19 83 -82 0 -43 1 -45 30 -46 30 -1 30 0 30 55 0 66 -22 108
-63 123 -47 16 -148 12 -179 -7z m167 -20 c-3 -10 2 -12 19 -7 31 7 46 -18 46
-80 0 -32 -4 -46 -13 -46 -9 0 -14 12 -14 35 0 52 -48 95 -108 95 -32 0 -51
-6 -65 -20 -23 -23 -38 -27 -20 -5 8 10 9 15 2 15 -18 0 -32 -34 -21 -51 14
-23 11 -59 -5 -53 -9 4 -16 -3 -18 -18 -2 -13 -4 4 -3 37 2 68 11 95 31 95 8
0 14 3 14 8 0 4 36 7 80 7 61 0 79 -3 75 -12z m-150 -163 c3 -5 1 -10 -4 -10
-6 0 -11 5 -11 10 0 6 2 10 4 10 3 0 8 -4 11 -10z m79 -56 c9 -3 13 -11 10
-16 -4 -6 0 -14 7 -19 27 -16 0 -20 -31 -4 -26 13 -29 19 -19 31 13 16 12 16
33 8z"/>
<path d="M2220 1190 c0 -5 5 -10 10 -10 6 0 10 5 10 10 0 6 -4 10 -10 10 -5 0
-10 -4 -10 -10z"/>
<path d="M2443 1225 c-17 -14 -36 -40 -41 -58 -5 -17 -10 -109 -10 -203 -1
-247 15 -274 167 -276 66 0 74 2 97 27 14 15 30 39 35 52 10 27 13 354 3 399
-3 16 -20 40 -37 54 -26 21 -44 25 -107 28 -68 3 -78 1 -107 -23z m20 -21
c-16 -13 -16 -14 0 -8 9 3 17 1 17 -5 0 -6 -4 -11 -10 -11 -16 0 -30 -73 -30
-165 0 -105 -10 -225 -19 -225 -3 0 -5 72 -3 160 2 101 -1 167 -8 180 -6 12
-7 20 -1 20 5 0 12 -8 15 -17 2 -10 2 0 -1 21 -5 33 -2 42 18 57 13 9 27 15
32 12 4 -3 0 -11 -10 -19z m127 16 c8 -5 12 -11 10 -13 -9 -7 -90 5 -90 14 0
12 61 11 80 -1z m48 -26 c0 -17 -4 -22 -11 -15 -5 5 -7 17 -4 25 9 23 15 19
15 -10z m-27 -22 c13 -17 15 -51 15 -210 -1 -105 -4 -194 -8 -197 -14 -15 -81
-23 -113 -14 l-35 10 0 204 0 204 27 15 c36 18 94 12 114 -12z m69 -8 c0 -8
-3 -13 -7 -13 -22 4 -24 -3 -9 -20 15 -17 17 -39 14 -184 -3 -156 -8 -190 -25
-173 -10 10 -16 328 -8 384 5 36 9 41 21 31 8 -6 14 -18 14 -25z m-238 -394
c-6 -15 -11 -19 -16 -12 -4 7 -1 18 6 26 17 19 20 14 10 -14z m214 -21 c3 -6
1 -16 -5 -22 -8 -8 -11 -8 -11 1 0 7 -8 12 -17 12 -15 0 -16 2 -3 10 20 13 27
12 36 -1z m-187 -15 c-12 -15 -10 -16 19 -10 21 5 32 4 32 -3 0 -6 5 -11 11
-11 5 0 8 4 5 9 -3 5 6 9 19 9 14 0 25 -4 25 -8 0 -4 12 -5 28 -3 21 4 24 2
12 -6 -29 -21 -180 -6 -180 18 0 12 12 21 28 21 12 0 12 -3 1 -16z"/>
<path d="M2654 920 c0 -69 1 -97 3 -62 2 34 2 90 0 125 -2 34 -3 6 -3 -63z"/>
<path d="M2822 1239 c2 -6 8 -10 13 -10 5 0 11 4 13 10 2 6 -4 11 -13 11 -9 0
-15 -5 -13 -11z"/>
<path d="M2865 1241 c-9 -16 34 -23 95 -16 61 7 104 0 95 -16 -4 -5 -2 -9 4
-9 5 0 11 -6 14 -12 2 -7 3 -5 1 5 -2 15 0 16 12 6 8 -6 14 -21 14 -32 0 -16
3 -18 11 -10 17 17 -15 61 -56 79 -38 16 -181 19 -190 5z"/>
<path d="M3303 1229 c-17 -11 -36 -34 -42 -51 -14 -41 -14 -385 0 -426 15 -43
57 -62 139 -62 82 0 124 19 139 62 6 18 11 110 11 220 0 222 -7 251 -69 268
-61 17 -142 12 -178 -11z m201 -18 c10 -11 15 -25 10 -32 -4 -8 -3 -10 5 -5 9
6 11 -47 9 -216 -2 -174 -6 -223 -16 -223 -7 0 -17 -6 -22 -14 -5 -9 -31 -16
-69 -19 -52 -4 -61 -2 -61 13 0 13 9 16 43 15 71 -3 77 -2 70 18 -5 14 -3 15
7 5 10 -9 17 -10 27 -2 15 13 18 33 3 24 -8 -5 -10 55 -9 189 l1 195 -27 25
c-24 22 -37 26 -91 26 -52 0 -62 -3 -58 -15 5 -11 -1 -15 -20 -15 -32 0 -33 6
-3 31 33 27 176 27 201 0z m-36 -33 c17 -17 17 -399 0 -416 -7 -7 -38 -12 -70
-12 -46 0 -59 4 -67 19 -11 19 -17 358 -7 368 3 4 6 14 6 24 0 9 6 20 13 22
25 10 113 7 125 -5z m-177 -28 c2 8 5 -74 8 -182 6 -188 7 -197 29 -221 17
-18 20 -27 11 -32 -8 -6 -10 -4 -4 5 6 10 4 12 -9 7 -29 -12 -46 18 -50 85 -3
49 -2 54 4 23 4 -24 7 26 7 125 -1 122 -2 143 -6 80 l-6 -85 -8 67 c-8 75 1
166 14 133 6 -15 8 -16 10 -5z"/>
<path d="M3513 880 c0 -47 2 -66 4 -42 2 23 2 61 0 85 -2 23 -4 4 -4 -43z"/>
<path d="M3680 970 l0 -280 120 0 c68 0 120 4 120 9 0 5 9 12 19 16 30 9 44
67 39 156 -3 58 -10 84 -23 99 -15 17 -16 24 -7 46 16 33 15 142 -1 174 -21
43 -71 60 -174 60 l-93 0 0 -280z m45 63 c5 -52 4 -73 -4 -73 -6 0 -11 -17
-11 -40 0 -22 -4 -40 -10 -40 -5 0 -10 18 -10 40 0 22 4 40 10 40 5 0 8 54 5
138 -4 137 0 126 20 -65z m155 187 c0 -5 10 -11 23 -11 22 -2 22 -2 -1 -6 -20
-4 -23 -9 -17 -31 10 -36 6 -121 -6 -143 -8 -16 5 -38 16 -27 5 5 12 41 15 73
2 14 5 11 10 -10 7 -28 8 -27 9 13 1 30 -3 41 -10 36 -7 -4 -10 -1 -7 6 12 36
25 16 27 -40 2 -53 0 -59 -15 -53 -12 4 -15 3 -10 -6 4 -7 -2 -20 -16 -32
l-23 -20 33 5 c33 4 39 -3 41 -59 1 -11 4 -41 7 -67 4 -32 2 -48 -5 -48 -6 0
-11 17 -11 39 0 23 -5 41 -12 44 -10 3 -10 11 -1 37 7 19 10 36 6 39 -3 3 -8
0 -10 -6 -4 -10 -9 -10 -26 2 -12 8 -31 12 -44 9 -19 -5 -23 -2 -23 16 0 12 4
18 10 15 6 -4 8 -10 5 -15 -3 -4 4 -6 15 -3 38 10 14 28 -42 33 l-56 5 1 -32
2 -33 61 0 c33 0 65 -5 72 -12 16 -16 16 -162 0 -176 -7 -6 -43 -12 -81 -14
l-67 -3 0 225 0 225 53 -2 c30 0 60 3 68 8 9 6 -9 9 -51 10 -63 2 -64 2 -20 9
69 11 80 11 80 0z m60 -49 c0 -5 -7 -11 -14 -14 -10 -4 -13 -1 -9 9 6 15 23
19 23 5z m-130 -191 c0 -11 -4 -20 -9 -20 -5 0 -11 9 -14 20 -3 13 0 20 9 20
8 0 14 -9 14 -20z m-82 -151 c-3 -28 -1 -63 5 -78 9 -25 12 -26 92 -26 46 0
79 3 73 6 -14 9 9 22 27 16 8 -4 16 4 20 20 3 14 9 23 12 20 3 -4 0 -20 -7
-37 -9 -23 -15 -28 -21 -18 -7 10 -9 9 -9 -3 0 -12 -14 -18 -61 -23 -103 -10
-165 -8 -151 6 7 7 12 21 11 32 -1 18 -2 17 -9 -4 -7 -21 -8 -19 -9 18 -1 23
4 42 9 42 6 0 10 18 10 40 0 22 3 40 6 40 4 0 4 -23 2 -51z"/>
<path d="M4170 1232 c-57 -28 -60 -42 -60 -307 l0 -241 35 0 35 0 0 138 c0
103 -3 138 -12 140 -7 1 25 5 72 8 l85 6 -82 2 c-76 2 -83 4 -83 22 0 18 7 20
83 22 l82 2 -85 6 c-47 3 -79 7 -72 8 8 1 12 22 12 61 0 55 14 89 38 92 46 5
62 4 90 -9 l32 -16 0 -242 0 -242 33 3 32 2 0 249 c0 236 -1 251 -20 271 -11
12 -33 26 -48 32 -43 17 -128 13 -167 -7z m80 -12 c11 -7 8 -8 -13 -6 -15 1
-30 6 -34 9 -10 11 30 8 47 -3z m93 -5 c37 -15 47 -31 47 -72 0 -22 -2 -23
-15 -9 -8 8 -12 22 -9 31 8 20 -22 44 -54 45 -13 0 -20 4 -17 10 8 13 6 13 48
-5z m-155 -19 c-8 -8 -15 -10 -17 -4 -2 6 -7 5 -12 -3 -4 -7 -11 -10 -16 -6
-9 10 16 27 40 27 15 0 16 -2 5 -14z m-37 -173 c1 -90 4 -138 9 -123 5 17 8
-8 9 -72 1 -110 -4 -134 -24 -114 -7 7 -15 45 -18 87 -2 41 -2 57 0 37 2 -21
8 -38 13 -38 5 0 11 -17 13 -37 2 -21 3 -15 0 12 -2 28 -6 116 -10 198 -3 81
-10 147 -14 147 -11 0 -12 34 -2 43 19 19 23 -6 24 -140z m229 77 c0 -5 -8
-10 -17 -10 -15 0 -16 2 -3 10 19 12 20 12 20 0z m2 -90 c-3 -33 -1 -50 7 -50
15 0 14 -57 -1 -63 -24 -8 -38 5 -38 34 0 16 5 29 10 29 6 0 10 18 10 40 0 22
-4 40 -10 40 -5 0 -10 5 -10 10 0 6 8 10 19 10 16 0 17 -6 13 -50z m-255 -32
c-2 -13 -4 -3 -4 22 0 25 2 35 4 23 2 -13 2 -33 0 -45z m253 -178 c0 -47 -4
-80 -10 -80 -6 0 -10 33 -10 80 0 47 4 80 10 80 6 0 10 -33 10 -80z"/>
<path d="M4367 943 c-13 -13 -7 -32 8 -27 8 4 15 12 15 20 0 15 -12 19 -23 7z"/>
<path d="M4625 1243 c-40 -8 -64 -27 -75 -56 -15 -46 -14 -497 3 -497 6 0 22
-3 35 -6 l23 -7 -3 251 c-2 137 0 248 4 246 4 -2 9 0 13 6 3 5 30 10 60 10 85
0 85 -1 85 -276 0 -227 0 -232 20 -227 11 3 20 10 20 15 0 6 6 6 14 -1 13 -11
15 19 16 211 1 222 -5 293 -21 282 -5 -3 -9 -1 -9 5 0 15 -30 41 -48 41 -15 0
-15 -2 -2 -10 13 -8 13 -10 -2 -10 -9 0 -18 -4 -20 -8 -1 -4 -27 -6 -55 -4
-66 5 -60 22 8 22 27 0 49 5 49 10 0 10 -75 12 -115 3z m-8 -28 c0 -8 -6 -15
-14 -15 -10 0 -13 -36 -13 -179 0 -217 -7 -301 -27 -301 -11 0 -13 38 -13 215
1 188 8 256 23 213 2 -7 2 0 0 15 -3 18 2 35 13 48 21 23 31 24 31 4z m155
-12 c-9 -4 -7 -10 7 -22 12 -10 18 -21 15 -24 -4 -3 1 -13 10 -22 14 -14 16
-44 14 -218 l-3 -202 -2 201 c-3 163 -6 204 -18 214 -8 7 -15 18 -15 25 0 7
-7 18 -15 25 -16 13 -11 30 8 29 8 0 8 -2 -1 -6z m17 -497 c-9 -8 -10 -7 -5 7
3 10 7 35 8 55 1 35 2 35 5 -7 3 -26 -1 -48 -8 -55z"/>
<path d="M2843 1212 l-23 -3 0 -260 c0 -238 4 -282 25 -249 3 6 11 10 16 10 6
0 8 -4 5 -9 -7 -10 19 -23 28 -14 9 9 6 171 -3 218 -7 32 -9 16 -11 -75 -3
-92 -5 -70 -12 115 -4 127 -6 237 -4 245 2 8 4 -22 5 -67 1 -89 20 -127 23
-46 0 26 0 59 -1 71 -3 31 15 51 39 45 25 -7 90 5 90 16 0 8 -127 10 -177 3z
m16 -344 c1 -93 -3 -148 -9 -148 -6 0 -9 86 -8 243 1 191 3 222 8 147 4 -52 8
-161 9 -242z"/>
<path d="M1140 1190 c0 -5 5 -10 10 -10 6 0 10 5 10 10 0 6 -4 10 -10 10 -5 0
-10 -4 -10 -10z"/>
<path d="M3016 1191 c-3 -5 3 -11 13 -14 23 -6 39 -94 22 -125 -15 -28 -14
-32 4 -26 21 8 21 121 -1 152 -16 23 -29 28 -38 13z"/>
<path d="M1136 1145 c-11 -28 -7 -425 4 -425 6 0 10 77 10 211 0 154 3 208 11
203 7 -4 10 -1 7 6 -7 21 -25 23 -32 5z"/>
<path d="M3113 1135 c-11 -17 -14 -18 -23 -5 -7 11 -10 6 -10 -22 0 -20 5 -40
10 -43 18 -11 11 -43 -16 -75 -19 -22 -29 -28 -34 -19 -5 6 -16 9 -25 5 -11
-4 -15 -2 -12 6 2 7 12 12 21 12 9 -1 16 5 16 13 0 10 -6 13 -16 9 -9 -3 -37
-6 -62 -6 -44 -1 -46 -2 -28 -15 11 -8 29 -15 40 -15 19 -1 19 -2 4 -11 -13
-7 -28 -5 -53 7 -38 17 -51 14 -42 -9 6 -15 87 -29 87 -15 0 5 11 8 25 8 20 0
25 -5 27 -27 3 -52 -1 -73 -16 -89 -15 -14 -16 -10 -17 43 -1 57 -1 57 -9 18
-7 -33 3 -105 16 -124 8 -10 30 27 27 44 -4 18 -3 18 7 2 6 -9 8 -22 5 -27 -3
-6 7 -22 23 -38 30 -28 48 -62 32 -62 -5 0 -20 11 -33 24 -14 14 -28 22 -32
18 -4 -4 -3 6 1 23 7 28 7 29 -10 12 -17 -17 -17 -19 9 -52 14 -19 34 -35 43
-35 9 0 27 -3 40 -6 20 -6 22 -3 22 31 0 32 -3 37 -20 32 -26 -7 -57 57 -65
138 l-7 60 41 33 c43 35 55 67 49 137 -3 36 -4 38 -15 20z"/>
<path d="M283 1000 c0 -25 2 -35 4 -22 2 12 2 32 0 45 -2 12 -4 2 -4 -23z"/>
<path d="M3060 1020 c-8 -5 -11 -12 -7 -16 4 -4 15 0 24 9 18 18 8 23 -17 7z"/>
<path d="M2885 1010 c3 -5 11 -10 16 -10 6 0 7 5 4 10 -3 6 -11 10 -16 10 -6
0 -7 -4 -4 -10z"/>
<path d="M1570 1000 c0 -5 7 -10 15 -10 8 0 15 5 15 10 0 6 -7 10 -15 10 -8 0
-15 -4 -15 -10z"/>
<path d="M2170 955 c0 -8 7 -15 14 -15 8 0 29 -15 46 -32 26 -29 30 -40 29
-83 -4 -100 -26 -87 -28 18 -1 35 -5 47 -17 47 -8 0 -12 5 -9 10 3 6 2 10 -4
10 -19 0 -22 -20 -7 -36 18 -18 21 -76 6 -105 -9 -16 -22 -19 -75 -19 -35 0
-67 5 -70 11 -5 6 -11 4 -19 -7 -11 -15 -14 -15 -29 0 -15 16 -16 47 -1 94 8
28 26 -1 21 -34 -3 -19 -2 -34 4 -34 5 0 9 23 9 50 0 49 -1 50 -30 50 l-30 0
0 -62 c1 -104 48 -135 192 -130 26 2 45 11 67 33 29 28 31 36 31 101 0 71 0
71 -42 110 -45 41 -58 46 -58 23z m67 -212 c6 -17 -50 -43 -94 -43 -31 1 -35
2 -20 11 10 6 25 8 33 5 8 -3 14 -1 14 4 0 6 9 10 20 10 14 0 18 5 13 16 -4
12 -1 15 12 13 10 -2 20 -9 22 -16z m-177 -11 c0 -13 -12 -22 -22 -16 -10 6
-1 24 13 24 5 0 9 -4 9 -8z"/>
<path d="M1383 945 c-7 -7 -14 -42 -16 -77 -3 -35 -2 -46 0 -25 2 20 8 37 14
37 11 0 11 -43 0 -117 -4 -29 -4 -53 0 -53 5 0 6 -7 3 -15 -4 -8 -1 -15 5 -15
7 0 11 44 11 140 0 77 -1 140 -2 140 -2 -1 -8 -7 -15 -15z"/>
<path d="M282 850 c0 -19 2 -27 5 -17 2 9 2 25 0 35 -3 9 -5 1 -5 -18z"/>
<path d="M305 869 c-4 -6 -5 -12 -2 -15 2 -3 7 2 10 11 7 17 1 20 -8 4z"/>
</g>
</svg>
